<svg width="241" height="438" viewBox="0 0 241 438" fill="none" xmlns="http://www.w3.org/2000/svg">
<g clip-path="url(#clip0_1_2)" filter="url(#filter0_d_1_2)">
<path d="M15.1269 414.492C18.8431 419.5 23.4499 423.782 28.7168 427.122C29.8369 427.832 30.9868 428.502 32.1567 429.122H59.6865C59.3569 428.462 59.0366 427.792 58.7265 427.122C50.1906 409.109 47.514 388.875 51.0727 369.263C54.6315 349.65 64.2467 331.647 78.5668 317.782C61.9267 322.922 46.5468 332.942 36.4867 347.152C31.5986 354.072 28.1223 361.887 26.2567 370.152C24.5942 353.623 27.2365 336.946 33.9267 321.742C20.4169 332.732 9.8964 347.782 5.8867 364.722C1.8769 381.672 4.7866 400.482 15.1269 414.492Z" fill="#F0F0F0"/>
<path d="M236.346 128.217C235.725 129.404 234.852 130.439 233.787 131.252C232.723 132.064 231.493 132.633 230.185 132.918C228.877 133.204 227.522 133.199 226.216 132.905C224.91 132.61 223.684 132.032 222.626 131.213L195.367 148.997L195.45 132.084L221.323 117.789C222.817 116.102 224.879 115.021 227.117 114.752C229.355 114.483 231.614 115.045 233.466 116.33C235.318 117.616 236.634 119.536 237.165 121.727C237.696 123.917 237.404 126.227 236.346 128.217Z" fill="#E2A7A7"/>
<path d="M99.559 417.364H111.253L116.817 372.257L99.557 372.258L99.559 417.364Z" fill="#E2A7A7"/>
<path d="M96.577 428.7L134.284 428.699V428.222C134.284 424.329 132.738 420.596 129.985 417.844C127.233 415.092 123.5 413.545 119.608 413.545L96.576 413.546L96.577 428.7Z" fill="#2F2E41"/>
<path d="M157.415 417.364H169.109L174.672 372.257L157.413 372.258L157.415 417.364Z" fill="#E2A7A7"/>
<path d="M154.433 428.7L192.14 428.699V428.222C192.14 424.329 190.593 420.596 187.841 417.844C185.089 415.092 181.356 413.545 177.463 413.545L154.432 413.546L154.433 428.7Z" fill="#2F2E41"/>
<path d="M170.913 187.19L182.566 303.468L176.739 403.836H154.212L149.659 309.425L131.942 257.799L121.63 337.356V402.132L96.001 403.318L87.496 244.718C87.496 244.718 84.607 200.358 90.372 194.922C96.137 189.487 170.913 187.19 170.913 187.19Z" fill="#003459"/>
<path d="M71.5573 82.268L95.109 73.402L99.254 64.9974L128.862 65.4273L135.57 72.1667L158.626 79.7192L173.286 192.03C173.286 192.03 128.162 224.279 88.108 201.997L71.5573 82.268Z" fill="#749BC2"/>
<path d="M215.703 139.073L176.95 161.856L144.659 118.663V91.5708C144.657 89.0668 145.397 86.6183 146.786 84.5351C148.067 82.6101 149.85 81.0714 151.941 80.0851C154.033 79.0988 156.354 78.7024 158.654 78.9385C160.954 79.1746 163.147 80.0344 164.994 81.425C166.842 82.8156 168.274 84.6843 169.138 86.8294L185.908 128.496L209.693 121.468L215.703 139.073Z" fill="#749BC2"/>
<path d="M103.091 199.833C102.855 198.515 102.333 197.265 101.562 196.171C100.79 195.076 99.788 194.164 98.627 193.499C97.465 192.833 96.171 192.431 94.837 192.32C93.503 192.208 92.16 192.391 90.904 192.854L70.2479 167.703L65.2459 183.859L85.628 205.266C86.547 207.325 88.189 208.975 90.243 209.904C92.297 210.833 94.62 210.976 96.772 210.306C98.925 209.637 100.757 208.201 101.921 206.27C103.086 204.34 103.502 202.05 103.091 199.833Z" fill="#E2A7A7"/>
<path d="M72.281 195.873L85.334 182.819L63.7771 144.193L95.042 109.15L93.237 95.0119C92.822 91.7573 91.518 88.6798 89.469 86.117C87.688 83.8886 85.398 82.1192 82.793 80.9568C80.187 79.7944 77.3409 79.2728 74.4925 79.4356C71.644 79.5984 68.8759 80.4409 66.4197 81.8926C63.9635 83.3443 61.8907 85.3631 60.3745 87.78L35.9292 142.135L36.0514 142.316L72.281 195.873Z" fill="#749BC2"/>
<path d="M92.378 35.8186C93.281 42.4111 96.765 48.3753 102.063 52.4006C107.362 56.4259 114.042 58.1828 120.635 57.2855C127.229 56.3881 133.196 52.9098 137.226 47.6149C141.256 42.32 143.02 35.6417 142.128 29.0475L142.08 28.6911C141.04 22.1856 137.484 16.3496 132.18 12.4422C126.875 8.53468 120.248 6.86889 113.726 7.80409C107.205 8.7393 101.312 12.2005 97.32 17.4412C93.328 22.6818 91.555 29.2819 92.385 35.8175L92.378 35.8186Z" fill="#E2A7A7"/>
<path d="M98.767 48.7493C97.478 46.1305 96.154 43.3189 96.516 40.4225C96.878 37.5261 99.719 34.7576 102.508 35.6184C104.176 36.1331 105.436 37.7801 107.18 37.8644C109.579 37.9804 110.954 35.2349 111.701 32.9523L114.742 23.6557C117.662 25.9316 121.048 27.5347 124.66 28.3508C128.271 29.1668 132.018 29.1756 135.633 28.3765C138.456 27.731 141.309 26.4724 142.965 24.0963C144.621 21.7203 144.611 18.0346 142.339 16.2379C141.226 15.3569 139.743 15.0222 138.679 14.0821C138.018 13.499 137.563 12.7187 137.381 11.8568C137.198 10.9949 137.298 10.0972 137.666 9.29652C138.033 8.49581 138.648 7.83465 139.421 7.4109C140.193 6.98714 141.081 6.8233 141.954 6.94361L134.297 5.98661L136.579 1.86048C135.711 2.45068 134.731 2.8533 133.699 3.04258C132.667 3.23186 131.607 3.20364 130.587 2.95969C128.527 2.58876 126.587 1.74055 124.571 1.1749C119.687 -0.0725048 114.528 0.308705 109.88 2.26066C105.231 4.21261 101.347 7.6286 98.817 11.9896C96.933 11.3604 94.902 11.3186 92.993 11.8697C91.085 12.4208 89.389 13.5387 88.13 15.0754C86.08 17.677 85.523 21.1488 85.443 24.4598C85.294 30.9884 86.718 37.4571 89.594 43.32C90.419 45.1822 91.603 46.8631 93.08 48.2657C93.824 48.9612 94.711 49.4855 95.678 49.802C96.646 50.1184 97.671 50.2193 98.682 50.0976" fill="#20303A"/>
</g>
<defs>
<filter id="filter0_d_1_2" x="0" y="0" width="241" height="440" filterUnits="userSpaceOnUse" color-interpolation-filters="sRGB">
<feFlood flood-opacity="0" result="BackgroundImageFix"/>
<feColorMatrix in="SourceAlpha" type="matrix" values="0 0 0 0 0 0 0 0 0 0 0 0 0 0 0 0 0 0 127 0" result="hardAlpha"/>
<feOffset dy="4"/>
<feGaussianBlur stdDeviation="2"/>
<feColorMatrix type="matrix" values="0 0 0 0 0 0 0 0 0 0 0 0 0 0 0 0 0 0 0.25 0"/>
<feBlend mode="normal" in2="BackgroundImageFix" result="effect1_dropShadow_1_2"/>
<feBlend mode="normal" in="SourceGraphic" in2="effect1_dropShadow_1_2" result="shape"/>
</filter>
<clipPath id="clip0_1_2">
<rect width="233" height="432" fill="white" transform="translate(4)"/>
</clipPath>
</defs>
</svg>
