<!DOCTYPE svg PUBLIC "-//W3C//DTD SVG 1.1//EN" "http://www.w3.org/Graphics/SVG/1.1/DTD/svg11.dtd">
<!-- Uploaded to: SVG Repo, www.svgrepo.com, Transformed by: SVG Repo Mixer Tools -->
<svg fill="#ffffff" height="800px" width="800px" version="1.1" id="Capa_1" xmlns="http://www.w3.org/2000/svg" xmlns:xlink="http://www.w3.org/1999/xlink" viewBox="-91.8 -91.8 795.60 795.60" xml:space="preserve" stroke="#ffffff" stroke-width="0.00612001">
<g id="SVGRepo_bgCarrier" stroke-width="0"/>
<g id="SVGRepo_tracerCarrier" stroke-linecap="round" stroke-linejoin="round" stroke="#CCCCCC" stroke-width="3.6720059999999997"/>
<g id="SVGRepo_iconCarrier"> <path d="M559.241,63.311H415.527L376.486,24.27c-1.899-2.11-4.643-3.166-7.386-3.166H242.479c-2.743,0-5.487,1.266-7.386,3.166 l-39.041,39.041H52.759C23.636,63.311,0,86.947,0,116.07v422.069c0,29.123,23.636,52.759,52.759,52.759h506.483 c29.123,0,52.759-23.847,52.759-52.759V116.07C612,86.947,588.364,63.311,559.241,63.311z M590.897,538.138 c0,17.516-14.139,31.655-31.655,31.655H52.759c-17.516,0-31.655-14.139-31.655-31.655V116.07c0-17.516,14.139-31.655,31.655-31.655 l0,0h147.935c2.743,0,5.487-1.266,7.386-3.166l39.041-39.041H365.09l39.041,39.041c1.899,2.11,4.643,3.166,7.386,3.166h147.724 c17.516,0,31.655,14.139,31.655,31.655L590.897,538.138L590.897,538.138z M306,211.035c-75.55,0-137.172,61.622-137.172,137.172 S230.45,485.38,306,485.38s137.172-61.622,137.172-137.172S381.55,211.035,306,211.035z M306,464.276 c-63.943,0-116.069-52.125-116.069-116.069S242.057,232.139,306,232.139s116.069,52.126,116.069,116.069 S369.943,464.276,306,464.276z M311.276,284.896c0,2.954-2.321,5.276-5.276,5.276c-32.077,0-58.034,25.957-58.034,58.034 c0,2.744-2.321,5.276-5.276,5.276s-5.276-2.321-5.276-5.276c0-37.775,30.811-68.586,68.586-68.586 C308.954,279.62,311.276,281.943,311.276,284.896z M163.552,116.07c0,2.955-2.321,5.276-5.276,5.276H58.034v142.448 c0,2.743-2.321,5.276-5.276,5.276c-2.954,0-5.276-2.321-5.276-5.276V116.07c0-2.954,2.321-5.276,5.276-5.276h105.517 C161.23,110.794,163.552,113.115,163.552,116.07z"/> </g>
</svg>