<svg version="1.2" xmlns="http://www.w3.org/2000/svg" viewBox="0 0 1520 1331" width="1520" height="1331">
	<title>Tata_logo-svg</title>
	<style>
		.s0 { fill: #486aae } 
	</style>
	<g id="Layer">
		<path id="Layer" class="s0" d="m0.2 952h365.9v111.4h-105v267.5h-152.4v-267.5h-108.5zm551.2 153l-77.1 225.8h-146.4l143.6-378.8h159l147.1 378.8h-148.2zm191.2-153.1h365.8v111.4h-104.9v267.5h-152.4v-267.5h-108.5zm551.2 153l-77.1 225.8h-146.4l143.7-378.8h158.9l147 378.8h-148.1z"/>
		<path id="Layer" fill-rule="evenodd" class="s0" d="m829.3 191.2c-16.7-0.4-28.2 5-35.8 14.6-9.3 11.7-8.6 53.5-8.3 72.2l4.9 483c-9.8 0.4-19.6 0.5-29.6 0.5-9.8 0-19.6-0.2-29.4-0.5l4.9-483c0.3-18.7 1-60.5-8.3-72.2-7.6-9.6-19.1-15-35.9-14.6-173.6 3.7-360.6 38.6-469.9 65 13.6-26.9 31.7-52.7 54-76.8 50.3-54.3 121.3-99.4 205.3-130.6 84.6-31.4 181.2-48 279.3-48 98.2 0 194.8 16.6 279.4 48 84 31.2 155 76.3 205.3 130.6 22.3 24.2 40.3 49.9 54 76.8-109.3-26.5-296.3-61.4-469.9-65zm500.7 190c0 166.8-161.6 308.7-385.7 360-6.6-26.7-45-183.8-75.8-366.4-0.9-5.5-1.6-10.3-2.2-14.1-9.2-62.7-8-95.5 83.9-90.4 105.5 5.8 212.3 12.5 372.3 48.7 4.9 20.4 7.5 41.2 7.5 62.2zm-676.6-11c-31.2 185.9-70.4 346.2-76.6 371.2-33.1-7.4-65.2-16.6-95.6-27.8-84-31.2-155-76.4-205.3-130.7-55.5-59.9-84.8-129.6-84.8-201.7 0-21 2.6-41.8 7.5-62.2 160-36.2 266.9-42.9 372.4-48.7 91.9-5.1 93.1 27.7 83.9 90.4-0.4 2.7-0.9 6-1.5 9.5z"/>
	</g>
</svg>