<svg width="987" height="1014" viewBox="0 0 987 1014" fill="none" xmlns="http://www.w3.org/2000/svg">
<rect x="141" width="137" height="59" rx="24" fill="white"/>
<rect x="318" width="528" height="59" rx="24" fill="#B80000"/>
<rect x="23" y="99" width="246" height="59" rx="24" fill="#F7CD64"/>
<ellipse cx="338.5" cy="128.5" rx="29.5" ry="27.5" fill="#00D1FF"/>
<ellipse cx="522" cy="128.5" rx="114" ry="27.5" fill="#5BD247"/>
<rect x="676" y="101" width="288" height="55" rx="24" fill="#D9D9D9"/>
<path d="M161.222 309.845C159.258 312.941 154.742 312.941 152.778 309.845L118.57 255.929C116.458 252.6 118.85 248.25 122.792 248.25H191.208C195.15 248.25 197.542 252.6 195.43 255.929L161.222 309.845Z" fill="#AE3AE4"/>
<path d="M292.778 232.155C294.742 229.059 299.258 229.059 301.222 232.155L335.43 286.071C337.542 289.4 335.15 293.75 331.208 293.75H262.792C258.85 293.75 256.458 289.4 258.57 286.071L292.778 232.155Z" fill="#DB0000"/>
<rect x="387" y="198" width="59" height="146" rx="24" fill="black"/>
<path d="M622.569 219.381C611.38 209.172 597.126 202.219 581.607 199.403C566.089 196.586 550.003 198.032 535.385 203.557C520.767 209.082 508.273 218.439 499.482 230.443C490.692 242.448 486 256.562 486 271C486 285.438 490.692 299.552 499.482 311.557C508.273 323.561 520.767 332.918 535.385 338.443C550.003 343.968 566.089 345.414 581.607 342.597C597.126 339.781 611.38 332.828 622.569 322.619L566 271L622.569 219.381Z" fill="#CC9300"/>
<rect x="686" y="241.5" width="77" height="59" rx="24" fill="#DB00AB"/>
<rect x="803" y="241.5" width="77" height="59" rx="24" fill="#DB00AB"/>
<rect x="73.5" y="384" width="376" height="59" rx="24" fill="#0A93E0"/>
<rect x="489.5" y="390.5" width="424" height="46" rx="23" fill="#00F5AC"/>
<rect x="98.5" y="483" width="137" height="59" rx="24" fill="#3500CD"/>
<ellipse cx="389.5" cy="512.5" rx="114" ry="27.5" fill="#E12900"/>
<rect x="543.5" y="483" width="246" height="59" rx="24" fill="#DDDDDD"/>
<ellipse cx="859" cy="512.5" rx="29.5" ry="27.5" fill="#FF0000"/>
<rect x="30.6228" y="628.411" width="288" height="55" rx="24" fill="#D9D9D9"/>
<path d="M404.401 617.065C406.365 613.97 410.881 613.97 412.845 617.065L447.052 670.982C449.164 674.311 446.773 678.661 442.83 678.661H374.415C370.473 678.661 368.081 674.311 370.193 670.982L404.401 617.065Z" fill="#DB0000"/>
<path d="M552.845 694.756C550.881 697.851 546.365 697.851 544.401 694.756L510.193 640.839C508.081 637.51 510.473 633.161 514.415 633.161H582.83C586.773 633.161 589.164 637.51 587.052 640.839L552.845 694.756Z" fill="#AE3AE4"/>
<path d="M697.123 587.411L710.257 634.743H752.76L718.374 663.996L731.508 711.328L697.123 682.075L662.737 711.328L675.871 663.996L641.486 634.743H683.989L697.123 587.411Z" fill="#D9D9D9"/>
<path d="M819.165 707.591C830.3 717.928 844.518 725.001 860.022 727.917C875.526 730.833 891.618 729.46 906.265 723.973C920.911 718.485 933.454 709.129 942.307 697.087C951.159 685.045 955.924 670.859 955.999 656.322C956.074 641.786 951.455 627.551 942.727 615.419C933.999 603.287 921.553 593.802 906.964 588.164C892.375 582.526 876.297 580.988 860.764 583.744C845.231 586.5 830.941 593.427 819.7 603.648L876 655.911L819.165 707.591Z" fill="#CC9300"/>
<rect x="188.5" y="769.822" width="77" height="59" rx="24" fill="#DB00AB"/>
<rect x="305.5" y="769.822" width="77" height="59" rx="24" fill="#DB00AB"/>
<rect x="422.5" y="769.822" width="376" height="59" rx="24" fill="#0A93E0"/>
<rect x="281.5" y="868.822" width="424" height="46" rx="23" fill="#D9D9D9"/>
<rect x="42.5" y="954.822" width="528" height="59" rx="24" fill="#4500D8"/>
<rect x="610.5" y="1013.82" width="59" height="147" rx="24" transform="rotate(-90 610.5 1013.82)" fill="#AD0000"/>
<rect x="797.5" y="1013.82" width="59" height="147" rx="24" transform="rotate(-90 797.5 1013.82)" fill="#00AD45"/>
</svg>
