<!DOCTYPE svg PUBLIC "-//W3C//DTD SVG 1.1//EN" "http://www.w3.org/Graphics/SVG/1.1/DTD/svg11.dtd">

<!-- Uploaded to: SVG Repo, www.svgrepo.com, Transformed by: SVG Repo Mixer Tools -->
<svg fill="#212121bd" version="1.1" id="Capa_1" xmlns="http://www.w3.org/2000/svg" xmlns:xlink="http://www.w3.org/1999/xlink" width="256px" height="256px" viewBox="0 0 493.862 493.862" xml:space="preserve" stroke="#212121bd">

<g id="SVGRepo_bgCarrier" stroke-width="0"/>

<g id="SVGRepo_tracerCarrier" stroke-linecap="round" stroke-linejoin="round"/>

<g id="SVGRepo_iconCarrier"> <g> <path d="M491.618,241.409h-4.588v-13.946h4.588c0.006,0.001,0.012,0.001,0.016,0c1.229,0,2.229-0.998,2.229-2.229 c0-0.479-0.15-0.923-0.408-1.287l-6.702-12.064c-0.394-0.707-1.14-1.146-1.948-1.146H328.899v-34.123 c0-0.025-0.007-0.047-0.008-0.072c1.609-1.525,2.62-3.676,2.62-6.063c0-2.387-1.011-4.538-2.62-6.063 c0.001-0.024,0.008-0.047,0.008-0.072v-36.352c0-7.556-5.594-18.429-13.632-20.337V98.91c0-1.23-0.998-2.229-2.229-2.229 c-1.231,0-2.229,0.998-2.229,2.229v8.641c-8.415,1.565-13.873,12.813-13.873,20.442c0,0.357,0.092,0.689,0.241,0.988v21.774 h-47.906V104.25c0-1.231-0.997-2.229-2.228-2.229s-2.229,0.998-2.229,2.229v46.505h-48.146v-22.763 c0-7.554-5.354-18.659-13.632-20.393v-8.69c0-1.23-0.998-2.229-2.229-2.229s-2.229,0.998-2.229,2.229v8.69 c-8.278,1.734-13.632,12.838-13.632,20.393v36.352c0,0.025,0.006,0.047,0.007,0.071c-1.61,1.525-2.621,3.676-2.621,6.063 c0,2.387,1.011,4.539,2.621,6.063c-0.001,0.024-0.007,0.046-0.007,0.071v34.123H9.044c-0.81,0-1.555,0.439-1.948,1.146 l-6.816,12.271c-0.383,0.691-0.373,1.532,0.027,2.213s1.131,1.098,1.921,1.098h4.587v13.946H2.229c-0.79,0-1.521,0.417-1.921,1.098 c-0.4,0.681-0.411,1.523-0.027,2.213l6.535,11.765v138.47c0,1.229,0.998,2.229,2.229,2.229h65.774c1.231,0,2.229-0.998,2.229-2.229 v-44.306c0-2.388,0.761-4.669,2.202-6.599c0.505-0.679,0.584-1.583,0.204-2.337c-0.692-1.373-1.043-2.838-1.043-4.355 c0-3.576,5.496-9.168,9.7-12.525c4.203,3.357,9.699,8.949,9.699,12.525c0,1.518-0.351,2.982-1.043,4.355 c-0.38,0.754-0.301,1.658,0.204,2.337c1.441,1.93,2.203,4.211,2.203,6.599v44.306c0,1.229,0.998,2.229,2.229,2.229h65.774h27.265 h28.719c1.231,0,2.229-0.998,2.229-2.229v-70.115c0-11.941,9.715-21.656,21.656-21.656c11.939,0,21.654,9.715,21.654,21.656v70.115 c0,1.229,0.998,2.229,2.229,2.229h28.479h27.264h65.773c1.231,0,2.229-0.998,2.229-2.229v-44.306c0-2.388,0.763-4.669,2.203-6.599 c0.506-0.679,0.584-1.583,0.204-2.337c-0.692-1.373-1.044-2.838-1.044-4.355c0-3.576,5.497-9.168,9.699-12.525 c4.203,3.357,9.699,8.949,9.699,12.525c0,1.518-0.352,2.982-1.044,4.355c-0.381,0.754-0.302,1.658,0.204,2.337 c1.44,1.93,2.202,4.211,2.202,6.599v44.306c0,1.229,0.998,2.229,2.229,2.229h65.774c1.231,0,2.229-0.998,2.229-2.229v-138.47 l6.534-11.765c0.384-0.69,0.374-1.532-0.025-2.213C493.141,241.826,492.407,241.409,491.618,241.409z M482.573,241.409H329.14 v-13.946h153.434V241.409z M280.846,241.409v-26.215h6.107v26.215H280.846z M270.281,241.409v-26.215h6.107v26.215H270.281z M259.717,241.409v-26.215h6.105v26.215H259.717z M249.151,241.409v-26.215h6.107v26.215H249.151z M238.588,241.409v-26.215h6.107 v26.215H238.588z M228.022,241.409v-26.215h6.108v26.215H228.022z M217.458,241.409v-26.215h6.107v26.215H217.458z M206.893,241.409v-26.215H213v26.215H206.893z M196.997,241.409c-0.614-4.735-3.073-10.206-6.737-13.946h0.659 c4.612,0,8.363-3.751,8.363-8.363c0-1.41-0.354-2.739-0.974-3.905h4.127v26.215L196.997,241.409L196.997,241.409z M166.792,170.479 c0-2.154,1.752-3.906,3.906-3.906h20.221c2.154,0,3.906,1.752,3.906,3.906c0,2.154-1.752,3.906-3.906,3.906h-20.221 C168.543,174.385,166.792,172.633,166.792,170.479z M196.669,178.843h100.509v31.895H196.669V178.843z M327.054,170.479 c0,2.154-1.752,3.906-3.905,3.906h-20.221c-2.154,0-3.906-1.752-3.906-3.906c0-2.154,1.752-3.906,3.906-3.906h20.221 C325.302,166.574,327.054,168.326,327.054,170.479z M302.928,215.193h20.221c2.153,0,3.905,1.752,3.905,3.905 c0,2.154-1.752,3.906-3.905,3.906h-20.221c-2.154,0-3.906-1.752-3.906-3.906C299.021,216.947,300.773,215.193,302.928,215.193z M323.148,227.463h1.293v2.633c-0.671-0.942-1.403-1.827-2.192-2.633H323.148z M312.797,227.463 c5.298,0,10.489,7.198,11.645,13.639v0.307h-1.293h-20.221h-1.362C302.537,234.8,307.526,227.463,312.797,227.463z M192.504,241.409h-1.586h-20.221h-1.121c0.97-6.609,5.96-13.946,11.231-13.946C186.19,227.463,191.462,234.892,192.504,241.409z M170.698,223.006c-2.154,0-3.906-1.752-3.906-3.906c0-2.153,1.752-3.905,3.906-3.905h20.221c2.154,0,3.906,1.752,3.906,3.905 c0,2.154-1.752,3.906-3.906,3.906H170.698z M170.698,227.463h0.815c-0.762,0.806-1.465,1.691-2.107,2.632v-2.632H170.698z M166.792,249.771c0-2.152,1.752-3.906,3.906-3.906h20.221c2.154,0,3.906,1.751,3.906,3.906s-1.752,3.905-3.906,3.905h-20.221 C168.543,253.677,166.792,251.925,166.792,249.771z M291.411,215.193h4.128c-0.62,1.167-0.975,2.495-0.975,3.905 c0,4.612,3.751,8.363,8.363,8.363h0.573c-3.549,3.751-5.847,9.24-6.42,13.946h-5.672v-26.214H291.411z M299.021,249.771 c0-2.152,1.752-3.906,3.906-3.906h20.221c2.153,0,3.905,1.751,3.905,3.906s-1.752,3.905-3.905,3.905h-20.221 C300.773,253.677,299.021,251.925,299.021,249.771z M487.831,223.006h-3.028H330.539c0.618-1.167,0.974-2.495,0.974-3.906 c0-1.41-0.354-2.739-0.974-3.905H483.49L487.831,223.006z M324.441,178.843v31.895h-1.293h-20.221h-1.293v-31.895h1.293h20.221 H324.441z M302.928,162.116h-1.293v-31.894h22.807v31.895h-1.293L302.928,162.116L302.928,162.116z M312.797,111.817 c5.271,0,10.438,7.429,11.46,13.946h-22.691C302.537,119.155,307.526,111.817,312.797,111.817z M296.937,155.213v9.443 c-1.466,1.507-2.372,3.56-2.372,5.823c0,1.41,0.354,2.739,0.975,3.906h-97.23c0.62-1.167,0.974-2.496,0.974-3.906 c0-2.384-1.007-4.532-2.612-6.056v-0.079v-9.131H296.937z M180.808,111.817c5.271,0,10.261,7.337,11.231,13.946h-22.462 C170.547,119.155,175.538,111.817,180.808,111.817z M169.405,162.116v-31.894h22.807v22.763v9.132h-1.293h-20.221L169.405,162.116 L169.405,162.116z M190.918,178.843h1.293v31.895h-1.293h-18.971h-1.25h-1.292v-31.895h1.292H190.918z M10.355,215.193h152.952 c-0.619,1.167-0.974,2.495-0.974,3.905c0,1.411,0.354,2.74,0.974,3.906H9.044H6.017L10.355,215.193z M11.273,227.463h153.674 v13.946H11.273V227.463z M9.044,245.866h154.263c-0.619,1.167-0.974,2.496-0.974,3.906c0,1.411,0.354,2.739,0.974,3.905H10.355 l-4.339-7.811H9.044z M101.298,342.488c0.644-1.639,0.969-3.358,0.969-5.131c0-7.5-11.524-16.169-12.839-17.133 c-0.784-0.576-1.851-0.576-2.635,0c-1.314,0.964-12.839,9.633-12.839,17.133c0,1.771,0.325,3.492,0.969,5.131 c-1.53,2.456-2.333,5.251-2.333,8.16v42.076H11.273v-134.59h153.674v134.59h-61.317v-42.076 C103.63,347.739,102.828,344.944,101.298,342.488z M169.405,392.725v-134.59h1.292h20.221h1.293v134.59H169.405z M247.043,298.725 c-14.398,0-26.113,11.714-26.113,26.113v67.887h-24.262V255.906c0-0.023-0.006-0.048-0.007-0.07c1.609-1.525,2.62-3.676,2.62-6.063 c0-1.409-0.354-2.737-0.974-3.906h97.23c-0.62,1.167-0.975,2.497-0.975,3.906c0,2.388,1.011,4.539,2.62,6.063 c-0.001,0.023-0.007,0.047-0.007,0.07v136.818h-24.021v-67.887C273.156,310.438,261.441,298.725,247.043,298.725z M301.635,258.135 h1.293h20.221h1.293v134.59h-22.807V258.135z M482.573,392.725h-61.316v-42.076c0-2.909-0.803-5.704-2.333-8.16 c0.644-1.639,0.97-3.358,0.97-5.131c0-7.5-11.523-16.169-12.838-17.133c-0.785-0.576-1.852-0.576-2.637,0 c-1.313,0.964-12.839,9.633-12.839,17.133c0,1.771,0.325,3.492,0.97,5.131c-1.53,2.456-2.333,5.251-2.333,8.16v42.076H328.9 v-134.59h153.674L482.573,392.725L482.573,392.725z M483.49,253.677H330.539c0.618-1.166,0.974-2.494,0.974-3.905 c0-1.41-0.354-2.738-0.974-3.906h154.264h3.028L483.49,253.677z"/> </g> </g>

</svg>