<svg xmlns="http://www.w3.org/2000/svg" viewBox="0 0 500 500"><ellipse cx="250.1" cy="316.9" fill="#f5f5f5" rx="236.7" ry="136.6"/><g fill="#e6e6e6"><ellipse cx="428.8" cy="396.3" rx="47.1" ry="27.2"/><path d="m129 343 120 70a9 9 0 0 0 8 0l157-90c2-2 2-4 0-5l-121-70a9 9 0 0 0-8 0l-156 91c-2 1-2 3 0 4Zm-25-16-61-35c-2-2-2-4 0-5l65-38 65 38c2 1 2 3 0 5l-61 35a10 10 0 0 1-8 0Zm207-108c14-8 35-8 49 0 11 7 13 17 5 24a6 6 0 0 1 1 1l42 24c2 1 2 3 0 4l-2 1a7 7 0 0 1-7 0l-39-26c-14 8-35 8-49 0s-13-20 0-28Z"/></g><path fill="#749bc2" d="M306 224v8c0 5 3 9 8 13 12 7 32 7 44 0 6-4 9-8 9-13v-8c0-4-3-9-9-12-12-7-32-7-44 0-6 3-8 8-8 12Zm58 0c0 4-3 7-8 10s-12 5-20 5-15-2-20-5-8-6-8-10 3-7 8-10 12-4 20-4 15 1 20 4 8 7 8 10Z"/><path d="M337 242v8c-8 0-16-1-23-5-6-4-8-8-8-13v-8a8 8 0 0 1 0-1c-1 5 2 10 8 14s15 5 23 5Z" opacity=".1"/><path fill="#fff" d="M358 212c-12-7-32-7-44 0s-11 18 0 25 32 6 44 0 12-18 0-25Zm-2 22c-5 3-12 5-20 5s-15-2-20-5-7-6-7-10 2-7 7-10 12-4 20-4 15 1 20 4 8 7 8 10-3 7-8 10Z" opacity=".6"/><path fill="#749bc2" d="M364 224a8 8 0 0 1-2 4 16 16 0 0 0-6-5c-5-3-12-5-20-5s-15 2-20 5a17 17 0 0 0-6 5 8 8 0 0 1-1-4c0-3 2-7 7-10s12-4 20-4 15 1 20 4 8 7 8 10Z"/><path fill="#fff" d="M356 218c-5-3-12-5-20-5s-15 2-20 5c-4 2-6 5-7 8 1 3 3 6 7 8 5 3 12 5 20 5s15-2 20-5c4-2 7-5 7-8s-3-6-7-8Z" opacity=".5"/><path fill="#37474f" d="M357 242a5 5 0 0 1 2-4 2 2 0 0 1 1 0l11 6a2 2 0 0 1 0 1 5 5 0 0 1-2 4 2 2 0 0 1-1 0l-11-6a2 2 0 0 1 0-1Z"/><path fill="#263238" d="M357 243a2 2 0 0 1 0-1 4 4 0 0 1 0-2l13 8a4 4 0 0 1-1 1 2 2 0 0 1-1 0l-11-6Z"/><path d="M368 246Z"/><path fill="#749bc2" d="m404 266-36-20a5 5 0 0 1 2-2 2 2 0 0 1 2 0l34 18Z"/><path fill="#fff" d="m404 266-36-20a5 5 0 0 1 2-2 2 2 0 0 1 2 0l34 18Z" opacity=".6"/><path fill="#749bc2" d="m404 266-3 5-33-20a2 2 0 0 1-1-2 5 5 0 0 1 1-2v-1Z"/><path d="m404 266-3 5-33-20a2 2 0 0 1-1-2 5 5 0 0 1 1-2v-1Z" opacity=".1"/><path fill="#749bc2" d="M404 271a8 8 0 0 0 3-7c0-2-1-3-3-2a8 8 0 0 0-4 7c0 2 2 3 4 2Z"/><path d="M404 271a8 8 0 0 0 3-7c0-2-1-3-3-2a8 8 0 0 0-4 7c0 2 2 3 4 2Z" opacity=".3"/><g fill="#749bc2"><path d="M173 386a6 6 0 0 1-3-1l-92-53a2 2 0 0 1 0-4l22-13v1l-22 13a1 1 0 0 0-1 1 1 1 0 0 0 1 1l93 53a5 5 0 0 0 4 0l18-10 1 1-18 10a6 6 0 0 1-3 1Z"/><path d="M173 395a6 6 0 0 1-3-1L62 332a2 2 0 0 1 0-4l29-18 1 1-30 18a1 1 0 0 0 0 2l109 62a5 5 0 0 0 4 0l26-15 1 1-26 15a6 6 0 0 1-3 1Z"/><path d="M173 404a6 6 0 0 1-3 0L45 332a2 2 0 0 1-1-2 2 2 0 0 1 1-2l38-22 1 1-38 22a1 1 0 0 0 0 2l125 72a5 5 0 0 0 4 0l34-20 1 1-34 20a6 6 0 0 1-3 0Z"/></g><path fill="#263238" d="m43 269 65 37 65-37-65-38-65 38z"/><path fill="#455a64" d="M108 306v18a9 9 0 0 1-4-1l-29-17-29-17a6 6 0 0 1-3-4v-16l63 36Z"/><path fill="#37474f" d="M173 269v15a6 6 0 0 1-3 5l-26 15-32 18a9 9 0 0 1-4 1v-17l2-1Z"/><path fill="#749bc2" d="M47 276v2a1 1 0 0 0 0 1h1c0 1 0 0 0 0v-2a1 1 0 0 0 0-1h-1Zm2 2v2a1 1 0 0 0 1 0v1l1-1v-2a1 1 0 0 0-1 0v-1l-1 1Zm2 1v2a1 1 0 0 0 1 1h1v-2a1 1 0 0 0-1-1h-1Zm3 1v2a1 1 0 0 0 0 1h1v-2a1 1 0 0 0-1-1Z"/><path fill="#263238" d="M56 281v2a1 1 0 0 0 0 1h1c0 1 0 0 0 0v-2a1 1 0 0 0 0-1h-1Z"/><path fill="#749bc2" d="M58 283v2l1 1v-3l-1-1v1Z"/><path fill="#263238" d="M60 284v2a1 1 0 0 0 1 1v-2a1 1 0 0 0 0-1h-1Zm2 1v2a1 1 0 0 0 1 1h1v-2a1 1 0 0 0-1-1h-1Zm3 1v2a1 1 0 0 0 0 1h1v-2a1 1 0 0 0-1-1Z"/><path fill="#749bc2" d="M67 288v2l1 1v-3l-1-1v1Zm2 1v2a1 1 0 0 0 0 1h1v-2a1 1 0 0 0 0-1h-1c0-1 0 0 0 0Z"/><path fill="#263238" d="M71 290v2a1 1 0 0 0 1 1v-2a1 1 0 0 0 0-1h-1Zm2 1v2a1 1 0 0 0 1 1v1l1-1v-2a1 1 0 0 0-1-1h-1Z"/><path fill="#749bc2" d="M75 293v2a1 1 0 0 0 1 1h1v-3a1 1 0 0 0-1 0v-1l-1 1Zm3 1v2a1 1 0 0 0 0 1h1v-2a1 1 0 0 0 0-1h-1Zm2 1v2a1 1 0 0 0 0 1h1v-2a1 1 0 0 0 0-1h-1Zm2 1v3l1 1v-3a1 1 0 0 0 0-1h-1Zm-35-13v2l1 1v-3l-1-1v1Z"/><path fill="#263238" d="M49 284v2a1 1 0 0 0 1 1h1v-2a1 1 0 0 0-1-1h-1Z"/><path fill="#749bc2" d="M51 285v2a1 1 0 0 0 1 1h1v-2a1 1 0 0 0-1-1h-1Z"/><path fill="#263238" d="M54 286v2a1 1 0 0 0 0 1h1v-2a1 1 0 0 0-1-1Zm2 2v2l1 1v-3l-1-1v1Z"/><path fill="#749bc2" d="M58 289v2a1 1 0 0 0 0 1h1v-2a1 1 0 0 0 0-1h-1c0-1 0 0 0 0Zm2 1v2a1 1 0 0 0 1 1v-2a1 1 0 0 0 0-1h-1Zm2 1v2a1 1 0 0 0 1 1v1l1-1v-2a1 1 0 0 0-1-1h-1Zm3 2v2a1 1 0 0 0 0 1h1v-3a1 1 0 0 0-1 0v-1 1Z"/><path fill="#263238" d="M67 294v2a1 1 0 0 0 0 1h1v-2a1 1 0 0 0 0-1h-1Zm2 1v2a1 1 0 0 0 0 1h1v-2a1 1 0 0 0 0-1h-1Z"/><path fill="#749bc2" d="M71 296v3a1 1 0 0 0 1 0v1-3a1 1 0 0 0 0-1h-1Zm2 2v2a1 1 0 0 0 1 1h1v-3a1 1 0 0 0-1 0v-1l-1 1Z"/><path fill="#263238" d="M75 299v2a1 1 0 0 0 1 1h1v-2a1 1 0 0 0-1-1h-1Zm3 1v2a1 1 0 0 0 0 1h1v-2a1 1 0 0 0 0-1h-1Zm2 1v3l1 1v-3l-1-1Zm2 2v2a1 1 0 0 0 0 1h1v-2a1 1 0 0 0 0-1l-1-1v1Z"/><path fill="#749bc2" d="m89 304 1-1a1 1 0 0 1 2 0 4 4 0 0 1 2 3 1 1 0 0 1-1 2h-1a2 2 0 0 1-1 0 4 4 0 0 1-2-4 2 2 0 0 1 1 0Z"/><path d="m89 304 1-1a1 1 0 0 1 2 0 4 4 0 0 1 2 3 1 1 0 0 1-1 2h-1a2 2 0 0 1-1 0 4 4 0 0 1-2-4 2 2 0 0 1 1 0Z" opacity=".2"/><path fill="#749bc2" d="M91 304a4 4 0 0 1 2 3c0 1-1 2-2 1a4 4 0 0 1-2-3c0-1 1-2 2-1Zm7 4h1a1 1 0 0 1 1 0 4 4 0 0 1 2 3 1 1 0 0 1-1 1l-1 1a2 2 0 0 1 0-1 4 4 0 0 1-2-3Z"/><path d="M98 308h1a1 1 0 0 1 1 0 4 4 0 0 1 2 3 1 1 0 0 1-1 1l-1 1a2 2 0 0 1 0-1 4 4 0 0 1-2-3Z" opacity=".2"/><path fill="#749bc2" d="M99 308a4 4 0 0 1 2 4l-2 1a4 4 0 0 1-2-3c0-2 1-2 2-2Z"/><path fill="#263238" d="m43 241 65 37 65-37-65-38-65 38z"/><path fill="#455a64" d="m43 259 65 38v-19l-65-37v18z"/><path fill="#37474f" d="m108 297 65-38v-18l-65 37v19z"/><path fill="#749bc2" d="M51 269v-5l57 33v5l-57-33zm118-7v4l-61 36v-5l61-35z"/><path d="M169 262v4l-61 36v-5l61-35z" opacity=".2"/><path fill="#263238" d="M47 248v2a1 1 0 0 0 0 1h1v-2a1 1 0 0 0 0-1h-1Z"/><path fill="#749bc2" d="M49 249v2a1 1 0 0 0 1 1v1l1-1v-2a1 1 0 0 0-1-1h-1Zm2 2v2a1 1 0 0 0 1 0v1h1v-3a1 1 0 0 0-1 0v-1l-1 1Z"/><path fill="#263238" d="M54 252v2a1 1 0 0 0 0 1h1v-2a1 1 0 0 0-1-1c0-1 0 0 0 0Zm2 1v2a1 1 0 0 0 0 1h1v-2a1 1 0 0 0 0-1h-1Z"/><path fill="#749bc2" d="M58 254v3l1 1v-3a1 1 0 0 0 0-1h-1Zm2 2v2a1 1 0 0 0 1 1v-4l-1 1Zm2 1v2a1 1 0 0 0 1 1h1v-2a1 1 0 0 0-1-1h-1Zm3 1v2a1 1 0 0 0 0 1h1v-2a1 1 0 0 0-1-1Z"/><path fill="#263238" d="M67 259v3l1 1v-3a1 1 0 0 0 0-1h-1Zm2 2v2a1 1 0 0 0 0 1h1v-3l-1-1v1Zm2 1v2a1 1 0 0 0 1 1v-2a1 1 0 0 0 0-1h-1Z"/><path fill="#749bc2" d="M73 263v2a1 1 0 0 0 1 1h1v-2a1 1 0 0 0-1-1h-1Zm2 2v2a1 1 0 0 0 1 0v1l1-1v-2a1 1 0 0 0-1 0v-1l-1 1Zm3 1v2a1 1 0 0 0 0 1h1v-2a1 1 0 0 0 0-1h-1c0-1 0-1 0 0Z"/><path fill="#263238" d="M80 267v2a1 1 0 0 0 0 1h1v-2a1 1 0 0 0 0-1h-1Z"/><path fill="#749bc2" d="M82 268v2a1 1 0 0 0 0 1h1c0 1 0 0 0 0v-2a1 1 0 0 0 0-1h-1Zm-35-14v3l1 1v-3a1 1 0 0 0 0-1h-1Zm2 2v2a1 1 0 0 0 1 1h1v-3a1 1 0 0 0-1 0v-1l-1 1Zm2 1v2a1 1 0 0 0 1 1h1v-2a1 1 0 0 0-1-1h-1Zm3 1v2a1 1 0 0 0 0 1h1v-2a1 1 0 0 0-1-1Z"/><path fill="#263238" d="M56 259v3l1 1v-3a1 1 0 0 0 0-1h-1Zm2 2v2a1 1 0 0 0 0 1h1v-3l-1-1v1Z"/><path fill="#749bc2" d="M60 262v2a1 1 0 0 0 1 1v-2a1 1 0 0 0 0-1h-1Zm2 1v2a1 1 0 0 0 1 1h1v-2a1 1 0 0 0-1-1h-1Zm3 2v3l1-1v-2a1 1 0 0 0-1 0v-1 1Zm2 1v2a1 1 0 0 0 0 1h1v-2a1 1 0 0 0 0-1h-1c0-1 0-1 0 0Zm2 1v2a1 1 0 0 0 0 1h1v-2a1 1 0 0 0 0-1h-1Z"/><path fill="#263238" d="M71 268v2a1 1 0 0 0 1 1c0 1 0 0 0 0v-2a1 1 0 0 0 0-1h-1Z"/><path fill="#749bc2" d="M73 270v2a1 1 0 0 0 1 0v1l1-1v-2a1 1 0 0 0-1 0v-1l-1 1Zm2 1v2a1 1 0 0 0 1 1h1v-2a1 1 0 0 0-1-1h-1Zm3 1v2a1 1 0 0 0 0 1h1v-2a1 1 0 0 0 0-1h-1Zm2 1v2a1 1 0 0 0 0 1h1c0 1 0 0 0 0v-2a1 1 0 0 0 0-1h-1Zm2 2v2l1 1v-3l-1-1v1Zm7 0h1a1 1 0 0 1 2 0 4 4 0 0 1 2 3 1 1 0 0 1-1 2h-1a2 2 0 0 1-1 0 4 4 0 0 1-2-4 2 2 0 0 1 1 0Z"/><path d="M89 275h1a1 1 0 0 1 2 0 4 4 0 0 1 2 3 1 1 0 0 1-1 2h-1a2 2 0 0 1-1 0 4 4 0 0 1-2-4 2 2 0 0 1 1 0Z" opacity=".2"/><path fill="#749bc2" d="M91 276a4 4 0 0 1 2 3c0 1-1 2-2 1a4 4 0 0 1-2-3c0-2 1-2 2-1Zm7 4h1a1 1 0 0 1 1 0 4 4 0 0 1 2 3 1 1 0 0 1-1 1l-1 1v-1a4 4 0 0 1-2-3Z"/><path d="M98 280h1a1 1 0 0 1 1 0 4 4 0 0 1 2 3 1 1 0 0 1-1 1l-1 1v-1a4 4 0 0 1-2-3Z" opacity=".2"/><path fill="#749bc2" d="M99 280a4 4 0 0 1 2 4l-2 1a4 4 0 0 1-2-4l2-1Z"/><path fill="#263238" d="m43 212 65 38 65-38-65-37-65 37z"/><path fill="#455a64" d="m43 231 65 38v-19l-65-38v19z"/><path fill="#37474f" d="m108 269 65-38v-19l-65 38v19z"/><path fill="#749bc2" d="M51 241v-5l57 33v4l-57-32zm118-7v4l-61 35v-4l61-35z"/><path d="M169 234v4l-61 35v-4l61-35z" opacity=".2"/><path fill="#749bc2" d="M47 220v2a1 1 0 0 0 0 1h1v-2a1 1 0 0 0 0-1h-1Zm2 1v2a1 1 0 0 0 1 1h1v-2a1 1 0 0 0-1-1h-1Zm2 1v3a1 1 0 0 0 1 0v1l1-1v-2a1 1 0 0 0-1 0v-1h-1Z"/><path fill="#263238" d="M54 224v2a1 1 0 0 0 0 1h1v-2a1 1 0 0 0-1-1v-1 1Zm2 1v2a1 1 0 0 0 0 1h1v-2a1 1 0 0 0 0-1h-1Z"/><path fill="#749bc2" d="M58 226v2a1 1 0 0 0 0 1h1c0 1 0 0 0 0v-2a1 1 0 0 0 0-1h-1Zm2 2v2a1 1 0 0 0 1 0v1-4l-1 1Zm2 1v2a1 1 0 0 0 1 1h1v-2a1 1 0 0 0-1-1h-1Zm3 1v2a1 1 0 0 0 0 1h1v-2a1 1 0 0 0-1-1Zm2 1v2a1 1 0 0 0 0 1h1c0 1 0 0 0 0v-2a1 1 0 0 0 0-1h-1Zm2 2v2l1 1v-3l-1-1v1Zm2 1v2a1 1 0 0 0 1 1v-2a1 1 0 0 0 0-1h-1Z"/><path fill="#263238" d="M73 235v2a1 1 0 0 0 1 1h1v-2a1 1 0 0 0-1-1h-1Z"/><path fill="#749bc2" d="M75 236v2a1 1 0 0 0 1 1v1l1-1v-2a1 1 0 0 0-1-1h-1Zm3 2v2l1 1v-3l-1-1v1Zm2 1v2a1 1 0 0 0 0 1h1v-2a1 1 0 0 0 0-1h-1c0-1 0 0 0 0Zm2 1v2a1 1 0 0 0 0 1h1v-2a1 1 0 0 0 0-1h-1Zm-35-14v2a1 1 0 0 0 0 1h1v-2a1 1 0 0 0 0-1h-1Z"/><path fill="#263238" d="M49 228v2a1 1 0 0 0 1 0v1l1-1v-2a1 1 0 0 0-1 0v-1l-1 1Zm2 1v2a1 1 0 0 0 1 1h1v-2a1 1 0 0 0-1-1h-1Z"/><path fill="#749bc2" d="M54 230v2a1 1 0 0 0 0 1h1v-2a1 1 0 0 0-1-1Zm2 1v2a1 1 0 0 0 0 1h1c0 1 0 0 0 0v-2a1 1 0 0 0 0-1h-1Z"/><path fill="#263238" d="M58 233v2l1 1v-3l-1-1v1Z"/><path fill="#749bc2" d="M60 234v2a1 1 0 0 0 1 1v-2a1 1 0 0 0 0-1h-1Zm2 1v2a1 1 0 0 0 1 1h1v-2a1 1 0 0 0-1-1h-1Zm3 1v2a1 1 0 0 0 0 1v1l1-1v-2a1 1 0 0 0-1-1Zm2 2v2l1 1v-3l-1-1v1Z"/><path fill="#263238" d="M69 239v2a1 1 0 0 0 0 1h1v-2a1 1 0 0 0 0-1h-1c0-1 0 0 0 0Zm2 1v2a1 1 0 0 0 1 1v-2a1 1 0 0 0 0-1h-1Z"/><path fill="#749bc2" d="M73 241v3a1 1 0 0 0 1 0v1l1-1v-2a1 1 0 0 0-1-1h-1Zm2 2v2a1 1 0 0 0 1 1h1v-3a1 1 0 0 0-1 0v-1l-1 1Zm3 1v2a1 1 0 0 0 0 1h1v-2a1 1 0 0 0 0-1h-1Z"/><path fill="#263238" d="M80 245v2a1 1 0 0 0 0 1h1v-2a1 1 0 0 0 0-1h-1Z"/><path fill="#749bc2" d="M82 246v3l1 1v-3a1 1 0 0 0 0-1h-1Zm7 1h1a1 1 0 0 1 2 0 4 4 0 0 1 2 3 1 1 0 0 1-1 1l-1 1a2 2 0 0 1-1-1 4 4 0 0 1-2-3 2 2 0 0 1 1 0Z"/><path d="M89 247h1a1 1 0 0 1 2 0 4 4 0 0 1 2 3 1 1 0 0 1-1 1l-1 1a2 2 0 0 1-1-1 4 4 0 0 1-2-3 2 2 0 0 1 1 0Z" opacity=".2"/><path fill="#749bc2" d="M91 247a4 4 0 0 1 2 4l-2 1a4 4 0 0 1-2-3c0-2 1-2 2-2Zm7 5 1-1a1 1 0 0 1 1 1 4 4 0 0 1 2 3 1 1 0 0 1-1 1l-1 1v-1a4 4 0 0 1-2-3 2 2 0 0 1 0-1Z"/><path d="m98 252 1-1a1 1 0 0 1 1 1 4 4 0 0 1 2 3 1 1 0 0 1-1 1l-1 1v-1a4 4 0 0 1-2-3 2 2 0 0 1 0-1Z" opacity=".2"/><path fill="#749bc2" d="M99 252a4 4 0 0 1 2 3c0 2-1 2-2 1a4 4 0 0 1-2-3l2-1Z"/><path fill="#263238" d="m43 184 65 38 65-38-65-37-65 37z"/><path fill="#455a64" d="m43 203 65 38v-19l-65-38v19z"/><path fill="#37474f" d="m108 241 65-38v-19l-65 38v19z"/><path fill="#749bc2" d="M51 212v-4l57 33v4l-57-33zm118-7v5l-61 35v-4l61-36z"/><path d="M169 205v5l-61 35v-4l61-36z" opacity=".2"/><path fill="#749bc2" d="M47 192v2a1 1 0 0 0 0 1h1v-2a1 1 0 0 0 0-1h-1c0-1 0 0 0 0Z"/><path fill="#263238" d="M49 193v2a1 1 0 0 0 1 1h1v-2a1 1 0 0 0-1-1h-1Z"/><path fill="#749bc2" d="M51 194v2a1 1 0 0 0 1 1h1v-2a1 1 0 0 0-1-1h-1Z"/><path fill="#263238" d="M54 196v3h1v-3a1 1 0 0 0-1 0v-1 1Zm2 1v2a1 1 0 0 0 0 1h1v-2a1 1 0 0 0 0-1h-1c0-1 0 0 0 0Zm2 1v2a1 1 0 0 0 0 1h1v-2a1 1 0 0 0 0-1h-1Zm2 1v2a1 1 0 0 0 1 1v1-3a1 1 0 0 0 0-1h-1Z"/><path fill="#749bc2" d="M62 201v2a1 1 0 0 0 1 1h1v-3a1 1 0 0 0-1 0v-1l-1 1Zm3 1v2a1 1 0 0 0 0 1h1v-2a1 1 0 0 0-1-1Zm2 1v2a1 1 0 0 0 0 1h1v-2a1 1 0 0 0 0-1h-1Zm2 1v3l1 1v-3a1 1 0 0 0 0-1h-1Z"/><path fill="#263238" d="M71 206v2a1 1 0 0 0 1 1v-4l-1 1Zm2 1v2a1 1 0 0 0 1 1h1v-2a1 1 0 0 0-1-1h-1Zm2 1v2a1 1 0 0 0 1 1h1v-2a1 1 0 0 0-1-1h-1Z"/><path fill="#749bc2" d="M78 209v3l1 1v-3l-1-1Z"/><path fill="#263238" d="M80 211v2a1 1 0 0 0 0 1h1v-2a1 1 0 0 0 0-1l-1-1v1Zm2 1v2a1 1 0 0 0 0 1h1v-2a1 1 0 0 0 0-1h-1Zm-35-14v2a1 1 0 0 0 0 1h1v-2a1 1 0 0 0 0-1h-1Zm2 1v2a1 1 0 0 0 1 1v1l1-1v-2a1 1 0 0 0-1-1h-1Z"/><path fill="#749bc2" d="M51 201v2a1 1 0 0 0 1 1h1v-3a1 1 0 0 0-1 0v-1l-1 1Z"/><path fill="#263238" d="M54 202v2a1 1 0 0 0 0 1h1v-2a1 1 0 0 0-1-1Zm2 1v2a1 1 0 0 0 0 1h1v-2a1 1 0 0 0 0-1h-1Zm2 1v3l1 1v-3a1 1 0 0 0 0-1h-1Zm2 2v2a1 1 0 0 0 1 1v-4l-1 1Z"/><path fill="#749bc2" d="M62 207v2a1 1 0 0 0 1 1h1v-2a1 1 0 0 0-1-1h-1Z"/><path fill="#263238" d="M65 208v2a1 1 0 0 0 0 1h1v-2a1 1 0 0 0-1-1Zm2 1v3l1 1v-3l-1-1Zm2 2v2a1 1 0 0 0 0 1h1v-2a1 1 0 0 0 0-1l-1-1v1Z"/><path fill="#749bc2" d="M71 212v2a1 1 0 0 0 1 1v-2a1 1 0 0 0 0-1h-1Zm2 1v2a1 1 0 0 0 1 1h1v-2a1 1 0 0 0-1-1h-1Z"/><path fill="#263238" d="M75 215v2a1 1 0 0 0 1 0v1l1-1v-2a1 1 0 0 0-1 0v-1l-1 1Zm3 1v2a1 1 0 0 0 0 1h1v-2a1 1 0 0 0 0-1h-1c0-1 0 0 0 0Zm2 1v2a1 1 0 0 0 0 1h1v-2a1 1 0 0 0 0-1h-1Zm2 1v2a1 1 0 0 0 0 1h1c0 1 0 0 0 0v-2a1 1 0 0 0 0-1h-1Z"/><path fill="#749bc2" d="M89 219h1a1 1 0 0 1 2 0 4 4 0 0 1 2 3 1 1 0 0 1-1 1l-1 1v-1a2 2 0 0 1-1 0 4 4 0 0 1-2-3 2 2 0 0 1 1 0Z"/><path d="M89 219h1a1 1 0 0 1 2 0 4 4 0 0 1 2 3 1 1 0 0 1-1 1l-1 1v-1a2 2 0 0 1-1 0 4 4 0 0 1-2-3 2 2 0 0 1 1 0Z" opacity=".2"/><path fill="#749bc2" d="M91 219a4 4 0 0 1 2 4l-2 1a4 4 0 0 1-2-4l2-1Zm7 5 1-1a1 1 0 0 1 1 0 4 4 0 0 1 2 4 1 1 0 0 1-1 1h-1a4 4 0 0 1-2-3 2 2 0 0 1 0-1Z"/><path d="m98 224 1-1a1 1 0 0 1 1 0 4 4 0 0 1 2 4 1 1 0 0 1-1 1h-1a4 4 0 0 1-2-3 2 2 0 0 1 0-1Z" opacity=".2"/><path fill="#749bc2" d="M99 224a4 4 0 0 1 2 3c0 1-1 2-2 1a4 4 0 0 1-2-3c0-1 1-2 2-1Z"/><path fill="#263238" d="m43 156 65 38 65-38-65-37-65 37z"/><path fill="#455a64" d="m43 175 65 37v-18l-65-38v19z"/><path fill="#37474f" d="m108 212 65-37v-19l-65 38v18z"/><path fill="#749bc2" d="M51 184v-4l57 32v5l-57-33zm118-7v5l-61 35v-5l61-35z"/><path d="M169 177v5l-61 35v-5l61-35z" opacity=".2"/><path fill="#749bc2" d="M47 164v2a1 1 0 0 0 0 1h1v-3l-1-1v1Zm2 1v2a1 1 0 0 0 1 1h1v-2a1 1 0 0 0-1-1h-1Z"/><path fill="#263238" d="M51 166v2a1 1 0 0 0 1 1h1v-2a1 1 0 0 0-1-1h-1Z"/><path fill="#749bc2" d="M54 167v4l1-1v-2a1 1 0 0 0-1-1Zm2 2v2a1 1 0 0 0 0 1h1v-3l-1-1v1Z"/><path fill="#263238" d="M58 170v2a1 1 0 0 0 0 1h1v-2a1 1 0 0 0 0-1h-1Zm2 1v2a1 1 0 0 0 1 1c0 1 0 0 0 0v-2a1 1 0 0 0 0-1h-1Z"/><path fill="#749bc2" d="M62 173v2a1 1 0 0 0 1 0v1l1-1v-2a1 1 0 0 0-1 0v-1l-1 1Z"/><path fill="#263238" d="M65 174v2a1 1 0 0 0 0 1h1v-2a1 1 0 0 0-1-1c0-1 0-1 0 0Z"/><path fill="#749bc2" d="M67 175v2a1 1 0 0 0 0 1h1v-2a1 1 0 0 0 0-1h-1Zm2 1v2a1 1 0 0 0 0 1h1c0 1 0 0 0 0v-2a1 1 0 0 0 0-1h-1Zm2 2v2a1 1 0 0 0 1 0v1-4l-1 1Zm2 1v2a1 1 0 0 0 1 1h1v-2a1 1 0 0 0-1-1h-1Z"/><path fill="#263238" d="M75 180v2a1 1 0 0 0 1 1h1v-2a1 1 0 0 0-1-1h-1Zm3 1v2a1 1 0 0 0 0 1h1c0 1 0 0 0 0v-2a1 1 0 0 0 0-1h-1Zm2 2v2l1 1v-3l-1-1v1Z"/><path fill="#749bc2" d="M82 184v2a1 1 0 0 0 0 1h1v-2a1 1 0 0 0 0-1h-1c0-1 0 0 0 0Zm-35-14v2a1 1 0 0 0 0 1h1v-2a1 1 0 0 0 0-1h-1Zm2 1v2a1 1 0 0 0 1 1h1v-2a1 1 0 0 0-1-1h-1Zm2 2v2a1 1 0 0 0 1 0v1l1-1v-2a1 1 0 0 0-1 0v-1l-1 1Z"/><path fill="#263238" d="M54 174v2a1 1 0 0 0 0 1h1v-2a1 1 0 0 0-1-1c0-1 0-1 0 0Zm2 1v2a1 1 0 0 0 0 1h1v-2a1 1 0 0 0 0-1h-1Z"/><path fill="#749bc2" d="M58 176v2a1 1 0 0 0 0 1h1c0 1 0 0 0 0v-2a1 1 0 0 0 0-1h-1Zm2 2v2a1 1 0 0 0 1 0v1-4l-1 1Zm2 1v2a1 1 0 0 0 1 1h1v-2a1 1 0 0 0-1-1h-1Z"/><path fill="#263238" d="M65 180v2a1 1 0 0 0 0 1h1v-2a1 1 0 0 0-1-1Zm2 1v2a1 1 0 0 0 0 1h1c0 1 0 0 0 0v-2a1 1 0 0 0 0-1h-1Zm2 2v2l1 1v-3l-1-1v1Zm2 1v2a1 1 0 0 0 1 1v-2a1 1 0 0 0 0-1h-1Z"/><path fill="#749bc2" d="M73 185v2a1 1 0 0 0 1 1h1v-2a1 1 0 0 0-1-1h-1Zm2 1v3a1 1 0 0 0 1 0v1l1-1v-2a1 1 0 0 0-1-1h-1Zm3 2v2a1 1 0 0 0 0 1h1v-3l-1-1v1Zm2 1v2a1 1 0 0 0 0 1h1v-2a1 1 0 0 0 0-1h-1Zm2 1v2a1 1 0 0 0 0 1h1v-2a1 1 0 0 0 0-1h-1Zm7 1 1-1a1 1 0 0 1 2 1 4 4 0 0 1 2 3 1 1 0 0 1-1 1l-1 1v-1a2 2 0 0 1-1 0 4 4 0 0 1-2-3 2 2 0 0 1 1-1Z"/><path d="m89 191 1-1a1 1 0 0 1 2 1 4 4 0 0 1 2 3 1 1 0 0 1-1 1l-1 1v-1a2 2 0 0 1-1 0 4 4 0 0 1-2-3 2 2 0 0 1 1-1Z" opacity=".2"/><path fill="#749bc2" d="M91 191a4 4 0 0 1 2 3c0 2-1 2-2 1a4 4 0 0 1-2-3l2-1Zm7 5 1-1a1 1 0 0 1 1 0 4 4 0 0 1 2 4 1 1 0 0 1-1 1h-1a4 4 0 0 1-2-3 2 2 0 0 1 0-1Z"/><path d="m98 196 1-1a1 1 0 0 1 1 0 4 4 0 0 1 2 4 1 1 0 0 1-1 1h-1a4 4 0 0 1-2-3 2 2 0 0 1 0-1Z" opacity=".2"/><path fill="#749bc2" d="M99 196a4 4 0 0 1 2 3c0 1-1 2-2 1a4 4 0 0 1-2-3c0-1 1-2 2-1Z"/><path fill="#37474f" d="m170 126-59-34a6 6 0 0 0-6 0l-59 34a6 6 0 0 0-3 5v16l65 37 65-37v-16a6 6 0 0 0-3-5Z"/><path fill="#455a64" d="M108 165v19l-65-37v-16a6 6 0 0 1 2-4c-1 1-1 2 1 2l59 35a5 5 0 0 0 3 1Z"/><path fill="#263238" d="m46 129 59 35a6 6 0 0 0 6 0l59-35c2 0 2-2 0-3l-59-34a6 6 0 0 0-6 0l-59 34c-2 1-2 3 0 3Z"/><path fill="#749bc2" d="M51 156v-5l57 33v5l-57-33zm118-7v5l-61 35v-5l61-35z"/><path d="M169 149v5l-61 35v-5l61-35z" opacity=".2"/><path fill="#263238" d="M47 136v2l1 1v-3l-1-1v1Zm2 1v2a1 1 0 0 0 1 1h1v-2a1 1 0 0 0-1-1h-1Zm2 1v2a1 1 0 0 0 1 1h1v-2a1 1 0 0 0-1-1h-1Z"/><path fill="#749bc2" d="M54 139v2a1 1 0 0 0 0 1h1v-2a1 1 0 0 0-1-1Zm2 2v2l1 1v-3l-1-1v1Z"/><path fill="#263238" d="M58 142v2a1 1 0 0 0 0 1h1v-2a1 1 0 0 0 0-1h-1c0-1 0 0 0 0Zm2 1v2a1 1 0 0 0 1 1v-2a1 1 0 0 0 0-1h-1Zm2 1v2a1 1 0 0 0 1 1v1l1-1v-2a1 1 0 0 0-1-1h-1Zm3 2v3h1v-3a1 1 0 0 0-1 0v-1 1Zm2 1v2a1 1 0 0 0 0 1h1v-2a1 1 0 0 0 0-1h-1c0-1 0 0 0 0Z"/><path fill="#749bc2" d="M69 148v2a1 1 0 0 0 0 1h1v-2a1 1 0 0 0 0-1h-1Zm2 1v3a1 1 0 0 0 1 0v1-3a1 1 0 0 0 0-1h-1Z"/><path fill="#263238" d="M73 151v2a1 1 0 0 0 1 1h1v-3a1 1 0 0 0-1 0v-1l-1 1Z"/><path fill="#749bc2" d="M75 152v2a1 1 0 0 0 1 1h1v-2a1 1 0 0 0-1-1h-1Z"/><path fill="#263238" d="M78 153v2a1 1 0 0 0 0 1h1v-2a1 1 0 0 0 0-1h-1Zm2 1v3l1 1v-3a1 1 0 0 0 0-1h-1Zm2 2v2a1 1 0 0 0 0 1h1v-3l-1-1v1Z"/><path fill="#749bc2" d="M47 142v2a1 1 0 0 0 0 1h1v-2a1 1 0 0 0 0-1h-1c0-1 0 0 0 0Z"/><path fill="#263238" d="M49 143v2a1 1 0 0 0 1 1h1v-2a1 1 0 0 0-1-1h-1Zm2 1v2a1 1 0 0 0 1 1v1l1-1v-2a1 1 0 0 0-1-1h-1Zm3 2v3h1v-3a1 1 0 0 0-1 0v-1 1Zm2 1v2a1 1 0 0 0 0 1h1v-2a1 1 0 0 0 0-1h-1c0-1 0 0 0 0Z"/><path fill="#749bc2" d="M58 148v2a1 1 0 0 0 0 1h1v-2a1 1 0 0 0 0-1h-1Z"/><path fill="#263238" d="M60 149v3a1 1 0 0 0 1 0v1-3a1 1 0 0 0 0-1h-1Z"/><path fill="#749bc2" d="M62 151v2a1 1 0 0 0 1 1h1v-3a1 1 0 0 0-1 0v-1l-1 1Z"/><path fill="#263238" d="M65 152v2a1 1 0 0 0 0 1h1v-2a1 1 0 0 0-1-1Z"/><path fill="#749bc2" d="M67 153v2a1 1 0 0 0 0 1h1v-2a1 1 0 0 0 0-1h-1Z"/><path fill="#263238" d="M69 154v3l1 1v-3a1 1 0 0 0 0-1h-1Zm2 2v2a1 1 0 0 0 1 1v-4l-1 1Zm2 1v2a1 1 0 0 0 1 1h1v-2a1 1 0 0 0-1-1h-1Zm2 1v2a1 1 0 0 0 1 1h1v-2a1 1 0 0 0-1-1h-1Zm3 1v3l1 1v-3l-1-1Z"/><path fill="#749bc2" d="M80 161v2a1 1 0 0 0 0 1h1v-2a1 1 0 0 0 0-1h-1c0-1 0-1 0 0Z"/><path fill="#263238" d="M82 162v2a1 1 0 0 0 0 1h1v-2a1 1 0 0 0 0-1h-1Z"/><path fill="#749bc2" d="m89 163 1-1a1 1 0 0 1 2 0 4 4 0 0 1 2 4 1 1 0 0 1-1 1h-1a2 2 0 0 1-1 0 4 4 0 0 1-2-3 2 2 0 0 1 1-1Z"/><path d="m89 163 1-1a1 1 0 0 1 2 0 4 4 0 0 1 2 4 1 1 0 0 1-1 1h-1a2 2 0 0 1-1 0 4 4 0 0 1-2-3 2 2 0 0 1 1-1Z" opacity=".2"/><path fill="#749bc2" d="M91 163a4 4 0 0 1 2 3c0 1-1 2-2 1a4 4 0 0 1-2-3c0-1 1-2 2-1Zm7 5 1-1a1 1 0 0 1 1 0 4 4 0 0 1 2 3 1 1 0 0 1-1 2h-1a4 4 0 0 1-2-4Z"/><path d="m98 168 1-1a1 1 0 0 1 1 0 4 4 0 0 1 2 3 1 1 0 0 1-1 2h-1a4 4 0 0 1-2-4Z" opacity=".2"/><path fill="#749bc2" d="M99 168a4 4 0 0 1 2 3c0 1-1 2-2 1a4 4 0 0 1-2-3c0-1 1-2 2-1Zm36 171a8 8 0 0 0 4 6l110 64a9 9 0 0 0 8 0l151-87a7 7 0 0 0 0-13l-110-64a9 9 0 0 0-8 0l-151 87a8 8 0 0 0-4 7Z"/><path fill="#fff" d="M253 401v9a8 8 0 0 1-4-1l-110-64a7 7 0 0 1-1-13c-1 2-1 3 1 5l110 63a8 8 0 0 0 4 1Z" opacity=".2"/><path fill="#749bc2" d="M131 332a8 8 0 0 1-3-6V194a9 9 0 0 1 3-7l151-87a7 7 0 0 1 12 7v131a9 9 0 0 1-4 7l-151 87a8 8 0 0 1-8 0Z"/><path fill="#fff" d="M138 332a7 7 0 0 1-10-6V194a8 8 0 0 1 1-4l7 4a8 8 0 0 0-1 4v132c0 2 1 3 3 2Z" opacity=".2"/><path fill="#fff" d="M135 198v132c0 2 2 3 4 2l151-87a9 9 0 0 0 4-7V107c0-3-2-4-4-3l-151 87a9 9 0 0 0-4 7Z" opacity=".4"/><path fill="#749bc2" d="m139 337 110 63a9 9 0 0 0 8 0l151-87c2-1 2-3 0-4l-110-64a9 9 0 0 0-8 0l-151 87c-2 1-2 3 0 5Z"/><path fill="#fff" d="m139 337 110 63a9 9 0 0 0 8 0l151-87c2-1 2-3 0-4l-110-64a9 9 0 0 0-8 0l-151 87c-2 1-2 3 0 5Z" opacity=".6"/><path fill="#455a64" d="m141 199 146-84c1-1 2 0 2 1v114a5 5 0 0 1-2 4l-146 84c-1 1-2 0-2-1V203a5 5 0 0 1 2-4Z"/><path fill="#749bc2" d="m152 333 140-81a4 4 0 0 1 4 0l7 4a1 1 0 0 1 0 3l-140 81a4 4 0 0 1-4 0l-7-5a1 1 0 0 1 0-2Z"/><path fill="#fff" d="m152 333 140-81a4 4 0 0 1 4 0l7 4a1 1 0 0 1 0 3l-140 81a4 4 0 0 1-4 0l-7-5a1 1 0 0 1 0-2Z" opacity=".4"/><path fill="#749bc2" d="m170 344 140-81a4 4 0 0 1 4 0l44 25a1 1 0 0 1 0 3l-140 80a4 4 0 0 1-4 0l-44-25a1 1 0 0 1 0-2Z"/><path fill="#fff" d="m170 344 140-81a4 4 0 0 1 4 0l44 25a1 1 0 0 1 0 3l-140 80a4 4 0 0 1-4 0l-44-25a1 1 0 0 1 0-2Z" opacity=".4"/><path fill="#749bc2" d="m296 299 4-2v-1l-5-2a1 1 0 0 0-1 0l-4 2 5 3a1 1 0 0 0 1 0Zm-9-10-4 3c-1 0-1 0 0 0l5 3 5-2v-1l-5-3a1 1 0 0 0-1 0Zm-14 8-8 5 5 3a1 1 0 0 0 1 0l8-4v-1l-5-2a1 1 0 0 0-1-1Zm8-4-5 3 5 3a1 1 0 0 0 1 0l4-3c1 0 1 0 0 0l-5-3Zm-18 10-4 2v1l5 3a1 1 0 0 0 1 0l4-3-5-3a1 1 0 0 0-1 0Zm-6 4-4 2v1l5 3 5-3-5-3a1 1 0 0 0-1 0Zm20 12 4-3c1 0 1 0 0 0l-5-3-5 2v1l5 3a1 1 0 0 0 1 0Zm-6 3 4-2v-1l-5-3a1 1 0 0 0-1 0l-4 3 5 3a1 1 0 0 0 1 0Zm-7 4 5-3-6-3-5 3 5 3a1 1 0 0 0 1 0Zm-6 4 4-3-5-3a1 1 0 0 0-1 0l-4 2v1l5 3a1 1 0 0 0 1 0Zm31-27 5-2v-1l-5-3a1 1 0 0 0-1 0l-4 3c-1 0-1 0 0 0l5 3Zm-6 12 10-6-12-7a1 1 0 0 0-1 0l-5 3 7 4-5 3 6 3Zm-32-5-5 3 5 3a1 1 0 0 0 1 0l4-2v-1l-5-3Zm-7 4-4 3 5 3a1 1 0 0 0 1 0l4-3-5-3a1 1 0 0 0-1 0Zm-32 42a1 1 0 0 0 1 0l4-3-5-3-5 2v1Zm-19-12-4 2v1l5 3 5-3-5-3a1 1 0 0 0-1 0Zm10 8a1 1 0 0 0 1 0l4-2v-1l-5-3-5 3Zm20 6 5-3-5-3a1 1 0 0 0-1 0l-4 2v1l5 3Zm-7 3a1 1 0 0 0 1 0l4-2c1 0 1 0 0 0l-5-3-5 2v1Zm-17-21-4 3 5 3a1 1 0 0 0 1 0l4-3-5-3a1 1 0 0 0-1 0Zm32-19-4 3 5 3a1 1 0 0 0 1 0l4-2v-1l-5-3a1 1 0 0 0-1 0Zm-25 15-5 3 5 3a1 1 0 0 0 1 0l4-2v-1l-5-3Zm32-18-5 2v1l5 3a1 1 0 0 0 1 0l5-3-6-3Zm-13 7-4 3c-1 0-1 0 0 0l5 3 5-3-5-3a1 1 0 0 0-1 0Zm-6 4-5 2v1l5 3a1 1 0 0 0 1 0l4-3c1 0 1 0 0 0l-5-3Zm-7 4-4 2 5 3a1 1 0 0 0 1 0l4-2v-1l-5-2a1 1 0 0 0-1 0Zm33 4 4-2v-1l-5-3-5 3 5 3a1 1 0 0 0 1 0Zm56-56-4 3 5 3a1 1 0 0 0 1 0l4-3-5-3a1 1 0 0 0-1 0Zm-8 5-4 2v1l5 2a1 1 0 0 0 1 0l4-2-5-3a1 1 0 0 0-1 0Zm15-9-5 3 5 3a1 1 0 0 0 1 0l4-2v-1l-5-3Zm-34 35 5-3-5-3a1 1 0 0 0-1 0l-4 2v1l5 3Zm41-38a1 1 0 0 0-1 0l-4 2v1l5 3 5-3Zm-64 59 5-2v-1l-5-3a1 1 0 0 0-1 0l-4 3c-1 0-1 0 0 0l5 3Zm79-45 4-3-5-3-5 3 5 3a1 1 0 0 0 1 0Zm-14 0 5-3-5-3a1 1 0 0 0-1 0l-5 2 1 1 5 3a1 1 0 0 0 0-1Zm6-10a1 1 0 0 0-1 0l-4 2v1l5 3a1 1 0 0 0 1 0l4-3Zm1-1 13 7 5-2v-1l-13-7-5 3Zm-15 8-4 3 5 3a1 1 0 0 0 1 0l4-2v-1l-5-3a1 1 0 0 0-1 0Zm-48 28-4 3 5 3a1 1 0 0 0 1 0l4-3-5-3a1 1 0 0 0-1 0Zm63-21a1 1 0 0 0 1 0l4-3-5-3a1 1 0 0 0-1 0l-4 2v1Zm-56 17-5 3 5 3a1 1 0 0 0 1 0l4-2v-1l-5-3Zm-48 43 5-3-5-3a1 1 0 0 0-1 0l-5 3Zm-10-9-4 2v1l5 3 5-3-5-3a1 1 0 0 0-1 0Zm17 5 4-2v-1l-5-3a1 1 0 0 0-1 0l-4 3 5 3a1 1 0 0 0 1 0Zm6-4 4-2c1 0 1 0 0 0l-5-3-5 2v1l5 2a1 1 0 0 0 1 0Zm6-3 5-3-5-3a1 1 0 0 0-1 0l-4 2v1l5 3Zm-23-2-4 3 5 3a1 1 0 0 0 1 0l4-3-5-3a1 1 0 0 0-1 0Zm7-4-5 3 5 3a1 1 0 0 0 1 0l5-2v-1l-6-3Zm25-14-4 2v1l5 2a1 1 0 0 0 1 0l4-2v-1l-5-2a1 1 0 0 0-1 0Zm-6 3-4 3c-1 0-1 0 0 0l5 3 5-2v-1l-5-3a1 1 0 0 0-1 0Zm13-7-5 2v1l5 3a1 1 0 0 0 1 0l5-3-6-3Zm-26 15-4 2v1l5 3a1 1 0 0 0 1 0l4-3-5-3a1 1 0 0 0-1 0Zm7-4-5 3 5 3a1 1 0 0 0 1 0l4-3c1 0 0 0 0 0l-5-3Zm-5 26 4-2v-1l-5-3a1 1 0 0 0-1 0l-4 3 5 3a1 1 0 0 0 1 0Zm-38-4-5-3a1 1 0 0 0-1 0l-4 3 5 3a1 1 0 0 0 1 0l4-2v-1Zm10 3-5-3a1 1 0 0 0-1 0l-7 4 5 3a1 1 0 0 0 1 0l7-3v-1Zm-18-8-5-3-6 3 5 3a1 1 0 0 0 1 0l5-3c1 0 1 0 0 0Zm5-3 5-2v-1l-5-3a1 1 0 0 0-1 0l-4 3c-1 0-1 0 0 0Zm22 14-5-3a1 1 0 0 0-1 0l-8 5v1l5 3 9-5v-1Zm4 6-5-3a1 1 0 0 0-1 0l-5 3v1l5 3a1 1 0 0 0 1 0l5-3v-1Zm21-47a1 1 0 0 0 1 0l4-3c1 0 1 0 0 0l-5-3-5 2v1Zm-13 7a1 1 0 0 0 1 0l5-2v-1l-6-3-5 3Zm-28 17a1 1 0 0 0 1 0l4-3-5-3a1 1 0 0 0-1 0l-4 2v1Zm35-21a1 1 0 0 0 1 0l4-2v-1l-5-2a1 1 0 0 0-1 0l-4 2Zm-13 8a1 1 0 0 0 1 0l4-3-5-3a1 1 0 0 0-1 0l-4 3Zm2 37a1 1 0 0 0-1 0l-7 4 5 3a1 1 0 0 0 1 0l7-4Zm-11-32a1 1 0 0 0 1 0l4-2v-1l-5-3a1 1 0 0 0-1 0l-4 3Zm-7 4a1 1 0 0 0 1 0l4-3c1 0 1 0 0 0l-5-3-5 3Zm136-41-11 6v1l5 3a1 1 0 0 0 1 0l10-6v-1Zm-14 8a1 1 0 0 0-1 0l-4 3 5 3a1 1 0 0 0 1 0l4-2v-1Zm-87 48 5-2v-1l-5-3a1 1 0 0 0-1 0l-5 3 6 3Zm74-40-5 2v1l5 3a1 1 0 0 0 1 0l4-3c1 0 0 0 0 0Zm34-20a1 1 0 0 0-1 0l-4 3c-1 0-1 0 0 0l5 3 5-2v-1Zm11 0-12-7a1 1 0 0 0-1 0l-4 2 12 8a1 1 0 0 0 1 0l4-3Zm-69 34-6 3 5 3a1 1 0 0 0 1 0l5-3v-1Zm16-10-7 4v1l5 2a1 1 0 0 0 1 0l7-3v-1Zm-31 18-36 21 5 3 37-21Zm-38 22-6 3v1l5 3a1 1 0 0 0 1 0l5-4c1 0 1 0 0 0Zm46-26a1 1 0 0 0-1 0l-5 3 5 3a1 1 0 0 0 1 0l5-3Zm-53 30a1 1 0 0 0-1 0l-5 4 5 3a1 1 0 0 0 1 0l5-3v-1Zm68-39a1 1 0 0 0-1 0l-5 3v1l5 3 6-3v-1Zm23-13a1 1 0 0 0-1 0l-4 3c-1 0-1 0 0 0l5 3 5-3Zm14-10 4-3-5-3a1 1 0 0 0-1 0l-4 3 5 3a1 1 0 0 0 1 0Zm-29 0 4-3c1 0 1 0 0 0l-5-3-5 2v1l5 3a1 1 0 0 0 1 0Zm-15 25 13-8c1 0 0 0 0 0l-5-3-13 7v1l5 3a1 1 0 0 0 1 0Zm37-22 5-2-5-3a1 1 0 0 0-1 0l-4 2v1Zm-7-4 4-2v-1l-5-3-5 3 5 3a1 1 0 0 0 1 0Zm-36 29 4-2c1 0 1 0 0 0l-5-3-5 2v1l5 2a1 1 0 0 0 1 0Zm28-16a1 1 0 0 0 1 0l4-3c1 0 1 0 0 0l-5-3-5 2v1Zm-60 35 4-3c1 0 1 0 0 0l-5-3-5 3 5 3a1 1 0 0 0 1 0Zm7-4 4-2v-1l-5-3a1 1 0 0 0-1 0l-4 3 5 3a1 1 0 0 0 1 0Zm-13 8 4-3-5-3a1 1 0 0 0-1 0l-4 2v1l5 3a1 1 0 0 0 1 0Zm25-15 5-3-5-3a1 1 0 0 0-1 0l-4 3c-1 0-1 0 0 0l5 3Zm-6 4 4-3-5-3-5 2v1l5 3a1 1 0 0 0 1 0Zm13-8 4-2v-1l-5-3a1 1 0 0 0-1 0l-4 3 5 3a1 1 0 0 0 1 0Zm29-55a1 1 0 0 0 1 0l4-2v-1h-1a1 1 0 0 0-1 0l-4 2v1Zm-31 21 5-3-5-3a1 1 0 0 0-1 0l-5 3Zm12-8a1 1 0 0 0 1 0l4-2v-1l-5-2-5 2Zm-20 12 5-2v-1l-5-3a1 1 0 0 0-1 0l-4 3c-1 0-1 0 0 0Zm14-8a1 1 0 0 0 1 0l4-2v-1l-5-3a1 1 0 0 0-1 0l-4 3Zm-27 16a1 1 0 0 0 1 0l4-3-5-3a1 1 0 0 0-1 0l-4 2v1Zm6-4a1 1 0 0 0 1 0l4-3c1 0 1 0 0 0l-5-3-5 3Zm33-21a1 1 0 0 0 1 0l4-3c1 0 1 0 0 0l-1-1a1 1 0 0 0-1 0l-4 3Zm20-11 5-3-2-1a1 1 0 0 0-1 0l-4 3Zm10 6a1 1 0 0 0 1 0l4-3-5-3a1 1 0 0 0-1 0l-4 3Zm16 16 5-2v-1l-5-3a1 1 0 0 0-1 0l-5 3 6 3Zm-39-15 5-2v-1l-2-1-5 3Zm-52 32 5-2v-1l-5-2a1 1 0 0 0-1 0l-5 2Z"/><path fill="#fff" d="m296 299 4-2v-1l-5-2a1 1 0 0 0-1 0l-4 2 5 3a1 1 0 0 0 1 0Zm-9-10-4 3c-1 0-1 0 0 0l5 3 5-2v-1l-5-3a1 1 0 0 0-1 0Zm-14 8-8 5 5 3a1 1 0 0 0 1 0l8-4v-1l-5-2a1 1 0 0 0-1-1Zm8-4-5 3 5 3a1 1 0 0 0 1 0l4-3c1 0 1 0 0 0l-5-3Zm-18 10-4 2v1l5 3a1 1 0 0 0 1 0l4-3-5-3a1 1 0 0 0-1 0Zm-6 4-4 2v1l5 3 5-3-5-3a1 1 0 0 0-1 0Zm20 12 4-3c1 0 1 0 0 0l-5-3-5 2v1l5 3a1 1 0 0 0 1 0Zm-6 3 4-2v-1l-5-3a1 1 0 0 0-1 0l-4 3 5 3a1 1 0 0 0 1 0Zm-7 4 5-3-6-3-5 3 5 3a1 1 0 0 0 1 0Zm-6 4 4-3-5-3a1 1 0 0 0-1 0l-4 2v1l5 3a1 1 0 0 0 1 0Zm31-27 5-2v-1l-5-3a1 1 0 0 0-1 0l-4 3c-1 0-1 0 0 0l5 3Zm-6 12 10-6-12-7a1 1 0 0 0-1 0l-5 3 7 4-5 3 6 3Zm-32-5-5 3 5 3a1 1 0 0 0 1 0l4-2v-1l-5-3Zm-7 4-4 3 5 3a1 1 0 0 0 1 0l4-3-5-3a1 1 0 0 0-1 0Zm-32 42a1 1 0 0 0 1 0l4-3-5-3-5 2v1Zm-19-12-4 2v1l5 3 5-3-5-3a1 1 0 0 0-1 0Zm10 8a1 1 0 0 0 1 0l4-2v-1l-5-3-5 3Zm20 6 5-3-5-3a1 1 0 0 0-1 0l-4 2v1l5 3Zm-7 3a1 1 0 0 0 1 0l4-2c1 0 1 0 0 0l-5-3-5 2v1Zm-17-21-4 3 5 3a1 1 0 0 0 1 0l4-3-5-3a1 1 0 0 0-1 0Zm32-19-4 3 5 3a1 1 0 0 0 1 0l4-2v-1l-5-3a1 1 0 0 0-1 0Zm-25 15-5 3 5 3a1 1 0 0 0 1 0l4-2v-1l-5-3Zm32-18-5 2v1l5 3a1 1 0 0 0 1 0l5-3-6-3Zm-13 7-4 3c-1 0-1 0 0 0l5 3 5-3-5-3a1 1 0 0 0-1 0Zm-6 4-5 2v1l5 3a1 1 0 0 0 1 0l4-3c1 0 1 0 0 0l-5-3Zm-7 4-4 2 5 3a1 1 0 0 0 1 0l4-2v-1l-5-2a1 1 0 0 0-1 0Zm33 4 4-2v-1l-5-3-5 3 5 3a1 1 0 0 0 1 0Zm56-56-4 3 5 3a1 1 0 0 0 1 0l4-3-5-3a1 1 0 0 0-1 0Zm-8 5-4 2v1l5 2a1 1 0 0 0 1 0l4-2-5-3a1 1 0 0 0-1 0Zm15-9-5 3 5 3a1 1 0 0 0 1 0l4-2v-1l-5-3Zm-34 35 5-3-5-3a1 1 0 0 0-1 0l-4 2v1l5 3Zm41-38a1 1 0 0 0-1 0l-4 2v1l5 3 5-3Zm-64 59 5-2v-1l-5-3a1 1 0 0 0-1 0l-4 3c-1 0-1 0 0 0l5 3Zm79-45 4-3-5-3-5 3 5 3a1 1 0 0 0 1 0Zm-14 0 5-3-5-3a1 1 0 0 0-1 0l-5 2 1 1 5 3a1 1 0 0 0 0-1Zm6-10a1 1 0 0 0-1 0l-4 2v1l5 3a1 1 0 0 0 1 0l4-3Zm1-1 13 7 5-2v-1l-13-7-5 3Zm-15 8-4 3 5 3a1 1 0 0 0 1 0l4-2v-1l-5-3a1 1 0 0 0-1 0Zm-48 28-4 3 5 3a1 1 0 0 0 1 0l4-3-5-3a1 1 0 0 0-1 0Zm63-21a1 1 0 0 0 1 0l4-3-5-3a1 1 0 0 0-1 0l-4 2v1Zm-56 17-5 3 5 3a1 1 0 0 0 1 0l4-2v-1l-5-3Zm-48 43 5-3-5-3a1 1 0 0 0-1 0l-5 3Zm-10-9-4 2v1l5 3 5-3-5-3a1 1 0 0 0-1 0Zm17 5 4-2v-1l-5-3a1 1 0 0 0-1 0l-4 3 5 3a1 1 0 0 0 1 0Zm6-4 4-2c1 0 1 0 0 0l-5-3-5 2v1l5 2a1 1 0 0 0 1 0Zm6-3 5-3-5-3a1 1 0 0 0-1 0l-4 2v1l5 3Zm-23-2-4 3 5 3a1 1 0 0 0 1 0l4-3-5-3a1 1 0 0 0-1 0Zm7-4-5 3 5 3a1 1 0 0 0 1 0l5-2v-1l-6-3Zm25-14-4 2v1l5 2a1 1 0 0 0 1 0l4-2v-1l-5-2a1 1 0 0 0-1 0Zm-6 3-4 3c-1 0-1 0 0 0l5 3 5-2v-1l-5-3a1 1 0 0 0-1 0Zm13-7-5 2v1l5 3a1 1 0 0 0 1 0l5-3-6-3Zm-26 15-4 2v1l5 3a1 1 0 0 0 1 0l4-3-5-3a1 1 0 0 0-1 0Zm7-4-5 3 5 3a1 1 0 0 0 1 0l4-3c1 0 0 0 0 0l-5-3Zm-5 26 4-2v-1l-5-3a1 1 0 0 0-1 0l-4 3 5 3a1 1 0 0 0 1 0Zm-38-4-5-3a1 1 0 0 0-1 0l-4 3 5 3a1 1 0 0 0 1 0l4-2v-1Zm10 3-5-3a1 1 0 0 0-1 0l-7 4 5 3a1 1 0 0 0 1 0l7-3v-1Zm-18-8-5-3-6 3 5 3a1 1 0 0 0 1 0l5-3c1 0 1 0 0 0Zm5-3 5-2v-1l-5-3a1 1 0 0 0-1 0l-4 3c-1 0-1 0 0 0Zm22 14-5-3a1 1 0 0 0-1 0l-8 5v1l5 3 9-5v-1Zm4 6-5-3a1 1 0 0 0-1 0l-5 3v1l5 3a1 1 0 0 0 1 0l5-3v-1Zm21-47a1 1 0 0 0 1 0l4-3c1 0 1 0 0 0l-5-3-5 2v1Zm-13 7a1 1 0 0 0 1 0l5-2v-1l-6-3-5 3Zm-28 17a1 1 0 0 0 1 0l4-3-5-3a1 1 0 0 0-1 0l-4 2v1Zm35-21a1 1 0 0 0 1 0l4-2v-1l-5-2a1 1 0 0 0-1 0l-4 2Zm-13 8a1 1 0 0 0 1 0l4-3-5-3a1 1 0 0 0-1 0l-4 3Zm2 37a1 1 0 0 0-1 0l-7 4 5 3a1 1 0 0 0 1 0l7-4Zm-11-32a1 1 0 0 0 1 0l4-2v-1l-5-3a1 1 0 0 0-1 0l-4 3Zm-7 4a1 1 0 0 0 1 0l4-3c1 0 1 0 0 0l-5-3-5 3Zm136-41-11 6v1l5 3a1 1 0 0 0 1 0l10-6v-1Zm-14 8a1 1 0 0 0-1 0l-4 3 5 3a1 1 0 0 0 1 0l4-2v-1Zm-87 48 5-2v-1l-5-3a1 1 0 0 0-1 0l-5 3 6 3Zm74-40-5 2v1l5 3a1 1 0 0 0 1 0l4-3c1 0 0 0 0 0Zm34-20a1 1 0 0 0-1 0l-4 3c-1 0-1 0 0 0l5 3 5-2v-1Zm11 0-12-7a1 1 0 0 0-1 0l-4 2 12 8a1 1 0 0 0 1 0l4-3Zm-69 34-6 3 5 3a1 1 0 0 0 1 0l5-3v-1Zm16-10-7 4v1l5 2a1 1 0 0 0 1 0l7-3v-1Zm-31 18-36 21 5 3 37-21Zm-38 22-6 3v1l5 3a1 1 0 0 0 1 0l5-4c1 0 1 0 0 0Zm46-26a1 1 0 0 0-1 0l-5 3 5 3a1 1 0 0 0 1 0l5-3Zm-53 30a1 1 0 0 0-1 0l-5 4 5 3a1 1 0 0 0 1 0l5-3v-1Zm68-39a1 1 0 0 0-1 0l-5 3v1l5 3 6-3v-1Zm23-13a1 1 0 0 0-1 0l-4 3c-1 0-1 0 0 0l5 3 5-3Zm14-10 4-3-5-3a1 1 0 0 0-1 0l-4 3 5 3a1 1 0 0 0 1 0Zm-29 0 4-3c1 0 1 0 0 0l-5-3-5 2v1l5 3a1 1 0 0 0 1 0Zm-15 25 13-8c1 0 0 0 0 0l-5-3-13 7v1l5 3a1 1 0 0 0 1 0Zm37-22 5-2-5-3a1 1 0 0 0-1 0l-4 2v1Zm-7-4 4-2v-1l-5-3-5 3 5 3a1 1 0 0 0 1 0Zm-36 29 4-2c1 0 1 0 0 0l-5-3-5 2v1l5 2a1 1 0 0 0 1 0Zm28-16a1 1 0 0 0 1 0l4-3c1 0 1 0 0 0l-5-3-5 2v1Zm-60 35 4-3c1 0 1 0 0 0l-5-3-5 3 5 3a1 1 0 0 0 1 0Zm7-4 4-2v-1l-5-3a1 1 0 0 0-1 0l-4 3 5 3a1 1 0 0 0 1 0Zm-13 8 4-3-5-3a1 1 0 0 0-1 0l-4 2v1l5 3a1 1 0 0 0 1 0Zm25-15 5-3-5-3a1 1 0 0 0-1 0l-4 3c-1 0-1 0 0 0l5 3Zm-6 4 4-3-5-3-5 2v1l5 3a1 1 0 0 0 1 0Zm13-8 4-2v-1l-5-3a1 1 0 0 0-1 0l-4 3 5 3a1 1 0 0 0 1 0Zm29-55a1 1 0 0 0 1 0l4-2v-1h-1a1 1 0 0 0-1 0l-4 2v1Zm-31 21 5-3-5-3a1 1 0 0 0-1 0l-5 3Zm12-8a1 1 0 0 0 1 0l4-2v-1l-5-2-5 2Zm-20 12 5-2v-1l-5-3a1 1 0 0 0-1 0l-4 3c-1 0-1 0 0 0Zm14-8a1 1 0 0 0 1 0l4-2v-1l-5-3a1 1 0 0 0-1 0l-4 3Zm-27 16a1 1 0 0 0 1 0l4-3-5-3a1 1 0 0 0-1 0l-4 2v1Zm6-4a1 1 0 0 0 1 0l4-3c1 0 1 0 0 0l-5-3-5 3Zm33-21a1 1 0 0 0 1 0l4-3c1 0 1 0 0 0l-1-1a1 1 0 0 0-1 0l-4 3Zm20-11 5-3-2-1a1 1 0 0 0-1 0l-4 3Zm10 6a1 1 0 0 0 1 0l4-3-5-3a1 1 0 0 0-1 0l-4 3Zm16 16 5-2v-1l-5-3a1 1 0 0 0-1 0l-5 3 6 3Zm-39-15 5-2v-1l-2-1-5 3Zm-52 32 5-2v-1l-5-2a1 1 0 0 0-1 0l-5 2Z" opacity=".8"/><path fill="#749bc2" d="m274 348 43-25a5 5 0 0 1 5 0l25 14v3l-44 25a5 5 0 0 1-4 0l-25-14v-3Z"/><path fill="#fff" d="m274 348 43-25a5 5 0 0 1 5 0l25 14v3l-44 25a5 5 0 0 1-4 0l-25-14v-3Z" opacity=".4"/><path fill="#749bc2" d="M131 332a6 6 0 0 0 1 1 6 6 0 0 1-1-1Z"/><path fill="#fff" d="M294 106c-1-2-2-3-4-2l-151 87a8 8 0 0 0-3 3l-7-4a8 8 0 0 1 2-3l151-87a7 7 0 0 1 12 6Z" opacity=".6"/><path fill="#749bc2" d="M138 333Z"/><path fill="#fff" d="M412 315a8 8 0 0 1-4 7l-151 87a8 8 0 0 1-4 1v-9a8 8 0 0 0 4-1l151-87c2-1 2-3 0-4a9 9 0 0 1 4 6Z" opacity=".8"/><path fill="#37474f" d="M144 303c0 2 2 3 3 2l134-77a6 6 0 0 0 3-5v-90l-140 80Z"/><path fill="#fafafa" d="M195 195v4l2 1 27-16v-8l-27 16a3 3 0 0 0-2 3Z"/><path fill="#749bc2" d="m232 172 1 1v4a3 3 0 0 1-1 2l-8 5v-8Z"/><path fill="#fafafa" d="m231 178-1-1a4 4 0 0 0 0-1 2 2 0 0 0 0-1 1 1 0 0 0-2 0 4 4 0 0 0-1 3 2 2 0 0 0 1 2 1 1 0 0 0 1 0 3 3 0 0 0 1-2h1Zm-3 1a1 1 0 0 1-1-1 4 4 0 0 1 2-3 1 1 0 0 1 1 1 4 4 0 0 1-2 3Z"/><path fill="#263238" d="M144 207a6 6 0 0 1 3-5l134-77c1-1 3 0 3 2v6l-140 80Z"/><path fill="#749bc2" d="M267 136a3 3 0 0 0-1 3h1a3 3 0 0 0 2-2l-2-1Zm5-3a3 3 0 0 0-1 3l1 1a3 3 0 0 0 1-3l-1-1Zm5-2a3 3 0 0 0-1 2l1 1a3 3 0 0 0 1-3h-1Z"/><path fill="#fafafa" d="m147 305 134-77a6 6 0 0 0 3-5v-65l-140 80v65c0 2 2 3 3 2Z"/><path fill="#455a64" d="m199 193 20-12 2 1a3 3 0 0 1-2 2l-20 12-2-1a3 3 0 0 1 2-2Z" opacity=".4"/><path fill="#749bc2" d="m195 245-3-6v7a1 1 0 0 1-1 1l-1 1v-12a1 1 0 0 1 0-1h1c0-1 0-1 0 0l4 5v-7a1 1 0 0 1 0-1h1v12Zm3-10a12 12 0 0 1 0-2 9 9 0 0 1 1-2 7 7 0 0 1 1-1 5 5 0 0 1 1-2 3 3 0 0 1 2 0 2 2 0 0 1 1 0 3 3 0 0 1 1 1 7 7 0 0 1 0 2v4a12 12 0 0 1 0 2 9 9 0 0 1-1 2 7 7 0 0 1-1 1 6 6 0 0 1-2 1 3 3 0 0 1-1 1 1 1 0 0 1-1-1 3 3 0 0 1-1-1 8 8 0 0 1 0-1v-4Zm5-3a2 2 0 0 0 0-1h-2a3 3 0 0 0-1 1 6 6 0 0 0 0 2v3a2 2 0 0 0 0 2h1a3 3 0 0 0 2-1 6 6 0 0 0 0-3v-3Zm9-10a3 3 0 0 1 2 0 1 1 0 0 1 1 0 3 3 0 0 1 1 1 8 8 0 0 1 0 2v3a13 13 0 0 1 0 2 10 10 0 0 1-1 2 7 7 0 0 1-1 2 6 6 0 0 1-2 1l-3 2v-12a1 1 0 0 1 0-1Zm2 4a4 4 0 0 0 0-1 1 1 0 0 0 0-1 1 1 0 0 0-1 0 2 2 0 0 0-1 1h-1v9l1-1a3 3 0 0 0 1-1 4 4 0 0 0 1-1 5 5 0 0 0 0-1 7 7 0 0 0 0-1v-3Zm7-9a1 1 0 0 1 1 0l3 10a1 1 0 0 1-1 1l-1 1a1 1 0 0 1 0-1l-1-1-3 2-1 2a1 1 0 0 1 0 1h-1l2-13a3 3 0 0 1 1-1Zm1 8-1-5-2 6Zm8-13h1v1a1 1 0 0 1-1 1l-2 1v10a1 1 0 0 1 0 1l-1 1v-11l-3 2v-2a1 1 0 0 1 0-1Zm5-3a1 1 0 0 1 0 1l3 9v1l-1 1v-1l-1-1-4 2v2a2 2 0 0 1 0 1 1 1 0 0 1-1 0l-1 1v-1l3-13a3 3 0 0 1 0-1Zm0 8-1-5-1 6Z"/><path fill="#a35b5a" d="M458 277c2-29 0-36-8-41l-3 16s3 20 2 27l-2 17a4 4 0 0 1-2 2l-4 4-2 2a2 2 0 0 0 2 1 13 13 0 0 0 3-2 18 18 0 0 1-3 5c-3 3-3 6 3 6 3 0 6-2 9-10a62 62 0 0 0 2-8l3-19Z"/><path fill="#749bc2" d="M444 233c3 0 8 1 11 7s4 15 4 25c0 0-6 5-14 3Z"/><path d="M444 233c3 0 8 1 11 7s4 15 4 25c0 0-6 5-14 3Z" opacity=".5"/><path fill="#263238" d="M451 384v4c0 1 1 4-1 4s-5 1-6-1a74 74 0 0 0-4-6l-5-6c0-3 0-4 2-5s6 3 8 3l6 7Z"/><path fill="#a35b5a" d="M451 382v3a6 6 0 0 1-7 0v-4Z"/><path fill="#263238" d="m430 399 1 4v5l-6 2-8 2-10 2c-3-1-6-2-6-4s0-2 7-5c0 0 10-3 13-6Z"/><path fill="#a35b5a" d="M430 396v3c0 1-2 2-5 2l-4-2v-3Z"/><path fill="#749bc2" d="M453 348a70 70 0 0 0-2-13s1-12 1-23l1-29s-38-9-39 5 1 48 1 54l2 21 4 33a9 9 0 0 0 9 0s3-27 3-34a60 60 0 0 0-2-16s1-11 1-21 2-14 2-18l1-1 1 23 3 23 5 30c4 3 7 0 7 0s3-25 2-34Z"/><path d="M453 348a70 70 0 0 0-2-13s1-12 1-23l1-29s-38-9-39 5 1 48 1 54l2 21 4 33a9 9 0 0 0 9 0s3-27 3-34a60 60 0 0 0-2-16s1-11 1-21 2-14 2-18l1-1 1 23 3 23 5 30c4 3 7 0 7 0s3-25 2-34Z" opacity=".7"/><path d="M434 307s10-5 14-9c0 0-4 6-10 9l-2 20-1-20Z" opacity=".4"/><path fill="#a35b5a" d="m428 229 2 12h11l-1-15-12 3z"/><path fill="#263238" d="M453 240c-1-3-5-7-10-7l-3 1c0 2-5 4-11 2l-5 2c-4 1-7 4-8 17l-2 36c10 4 20 4 26 3 12-2 13-7 13-7l1-31-1-16Z"/><path fill="#8c3f3e" d="m420 213-3 5 2 1Z"/><path fill="#263238" d="M421 216a4 4 0 1 1 3-3 4 4 0 0 1-3 3Zm0-6a3 3 0 1 0 3 3 3 3 0 0 0-3-3Z"/><path fill="#a35b5a" d="M428 201c-6 1-8 4-9 13 0 10 1 13 2 15h8c3-1 10-3 14-8 4-6 5-14 0-17-5-5-13-4-15-3Z"/><path fill="#8c3f3e" d="M422 229a18 18 0 0 0 6 0 5 5 0 0 0 2-2s-1 2-8 2Z"/><path fill="#263238" d="m418 212 10 1v1l-10-1v-1z"/><path fill="#263238" d="M417 206a9 9 0 0 0 3 3l5 2a7 7 0 0 1 1 2l2 2s0-4 4-3 3 4 1 7-4 1-4 1 0 5 3 8h7c3-1 7-4 9-8 4-9 4-16-1-18-1-4-4-6-7-7a17 17 0 0 0-6 0 15 15 0 0 1-6 0 9 9 0 0 0-3-1c-1 0-3 1-2 2a5 5 0 0 0-6 0c-3 2-3 4-2 7a14 14 0 0 0 2 3Z"/><path fill="#263238" d="m447 203 4-2a2 2 0 0 0-4 2Zm-20 14 1-4a2 2 0 1 0-1 4Z"/><path fill="#a35b5a" d="m424 240-24-17c-3-2-7-2-9-1-2 2-1 4 3 9l22 23Z"/><path fill="#749bc2" d="m424 238-16-10s-7 6-5 15l14 13c2 1 8-1 9-8s-2-10-2-10Z"/><path d="m424 238-16-10s-7 6-5 15l14 13c2 1 8-1 9-8s-2-10-2-10Z" opacity=".5"/><path fill="#a35b5a" d="M390 224c1-4 13-13 18-16a32 32 0 0 0 5-4l2-2 2-2a14 14 0 0 1 3-2 11 11 0 0 1 7-1l2 1h3a1 1 0 0 1 1 1l-1 1c-3 1-6 1-8 3l-1 2h5c2 0 1 1 0 2a15 15 0 0 1-5 1l-6 2-15 15Z"/></svg>