<svg width="124" height="29" viewBox="0 0 124 29" fill="none" xmlns="http://www.w3.org/2000/svg">
<g clip-path="url(#clip0_13748_155121)">
<path d="M0 27.7334L2.27908 22.2368H3.21046L5.48954 27.7334H4.58637L3.96898 26.227H1.42178L0.814964 27.7334H0ZM1.72165 25.5073H3.68321L2.70243 23.1012H2.69538L1.72518 25.5073H1.72165Z" fill="white"/>
<path d="M7.46484 22.2368H8.29039V24.59H11.1339V22.2368H11.9595V27.7334H11.1339V25.3097H8.29039V27.7334H7.46484V22.2368Z" fill="white"/>
<path d="M14.2599 27.8463C14.0482 27.8463 13.8471 27.8181 13.6672 27.7616C13.4838 27.7052 13.325 27.624 13.1945 27.5182C13.0604 27.4123 12.9581 27.2818 12.8805 27.1301C12.8029 26.9784 12.7676 26.8091 12.7676 26.6185V26.6115C12.7676 26.3963 12.8099 26.2128 12.8946 26.0611C12.9793 25.9094 13.1027 25.7824 13.2721 25.6766C13.4379 25.5743 13.6496 25.4861 13.8965 25.419C14.147 25.352 14.4363 25.2956 14.7679 25.2532C14.9338 25.2321 15.0678 25.2074 15.1666 25.1827C15.2654 25.158 15.3395 25.1297 15.3924 25.0945C15.4418 25.0592 15.4771 25.0168 15.4912 24.9675C15.5053 24.9181 15.5123 24.8546 15.5123 24.7805V24.7734C15.5123 24.5688 15.4383 24.4206 15.2936 24.3218C15.149 24.2231 14.9443 24.1737 14.6833 24.1737C14.5457 24.1737 14.4222 24.1878 14.3093 24.216C14.1964 24.2442 14.0976 24.2901 14.0165 24.3501C13.9353 24.41 13.8683 24.4876 13.826 24.5794C13.7801 24.6746 13.7554 24.784 13.7484 24.9145H12.951C12.951 24.6817 12.9969 24.4806 13.0922 24.3077C13.1874 24.1384 13.3109 23.9973 13.4696 23.8844C13.6284 23.7715 13.8119 23.6903 14.0235 23.6339C14.2352 23.581 14.454 23.5527 14.6868 23.5527C14.9373 23.5527 15.1631 23.5739 15.3677 23.6198C15.5688 23.6656 15.7417 23.7397 15.8793 23.8456C16.0204 23.9479 16.1262 24.0855 16.2003 24.2583C16.2744 24.4312 16.3097 24.6394 16.3097 24.8934L16.3026 26.3857C16.3026 26.5339 16.3026 26.6679 16.3061 26.7914C16.3061 26.9149 16.3167 27.0313 16.3238 27.1372C16.3344 27.2465 16.345 27.3488 16.3626 27.4441C16.3767 27.5394 16.3979 27.6381 16.4226 27.7334H15.6182C15.6041 27.6664 15.5935 27.6029 15.5864 27.5464C15.5759 27.49 15.5723 27.4194 15.5653 27.3383C15.5018 27.4088 15.4312 27.4758 15.3501 27.5394C15.2689 27.6029 15.1772 27.6558 15.0714 27.7016C14.9655 27.7475 14.8456 27.7828 14.715 27.8075C14.581 27.8322 14.4328 27.8463 14.2634 27.8463H14.2599ZM14.4257 27.2218C14.5845 27.2218 14.7291 27.2042 14.8597 27.1654C14.9902 27.1301 15.1066 27.0737 15.2019 26.996C15.2971 26.9184 15.3748 26.8232 15.4277 26.7103C15.4806 26.5939 15.5088 26.4598 15.5088 26.3046V25.6131C15.3501 25.6695 15.2125 25.7154 15.089 25.7471C14.9655 25.7824 14.842 25.8142 14.7221 25.8389C14.5104 25.8918 14.3305 25.9412 14.1858 25.987C14.0412 26.0329 13.9283 26.0823 13.8401 26.1387C13.7519 26.1917 13.6919 26.2552 13.6566 26.3257C13.6213 26.3963 13.6002 26.481 13.6002 26.5797C13.6002 26.7879 13.6743 26.9467 13.8119 27.056C13.9495 27.1654 14.1541 27.2183 14.4222 27.2183L14.4257 27.2218Z" fill="white"/>
<path d="M16.634 23.6729H17.4984L18.7226 26.9327H18.7261L19.9821 23.6729H20.7653L19.1459 27.7336H18.2498L16.627 23.6729H16.634Z" fill="white"/>
<path d="M22.3498 27.8463C22.1381 27.8463 21.937 27.8181 21.7571 27.7616C21.5736 27.7052 21.4148 27.624 21.2843 27.5182C21.1502 27.4123 21.0479 27.2818 20.9703 27.1301C20.8927 26.9784 20.8574 26.8091 20.8574 26.6185V26.6115C20.8574 26.3963 20.8998 26.2128 20.9844 26.0611C21.0691 25.9094 21.1926 25.7824 21.3619 25.6766C21.5277 25.5743 21.7394 25.4861 21.9864 25.419C22.2369 25.352 22.5262 25.2956 22.8578 25.2532C23.0236 25.2321 23.1577 25.2074 23.2564 25.1827C23.3552 25.158 23.4293 25.1297 23.4822 25.0945C23.5316 25.0592 23.5669 25.0168 23.581 24.9675C23.5951 24.9181 23.6022 24.8546 23.6022 24.7805V24.7734C23.6022 24.5688 23.5281 24.4206 23.3835 24.3218C23.2388 24.2231 23.0342 24.1737 22.7731 24.1737C22.6355 24.1737 22.512 24.1878 22.3992 24.216C22.2863 24.2442 22.1875 24.2901 22.1063 24.3501C22.0252 24.41 21.9582 24.4876 21.9158 24.5794C21.87 24.6746 21.8453 24.784 21.8382 24.9145H21.0409C21.0409 24.6817 21.0867 24.4806 21.182 24.3077C21.2773 24.1384 21.4007 23.9973 21.5595 23.8844C21.7182 23.7715 21.9017 23.6903 22.1134 23.6339C22.3251 23.581 22.5438 23.5527 22.7766 23.5527C23.0271 23.5527 23.2529 23.5739 23.4575 23.6198C23.6586 23.6656 23.8315 23.7397 23.9691 23.8456C24.1102 23.9479 24.2161 24.0855 24.2901 24.2583C24.3642 24.4312 24.3995 24.6394 24.3995 24.8934L24.3925 26.3857C24.3925 26.5339 24.3925 26.6679 24.396 26.7914C24.396 26.9149 24.4066 27.0313 24.4136 27.1372C24.4242 27.2465 24.4348 27.3488 24.4524 27.4441C24.4665 27.5394 24.4877 27.6381 24.5124 27.7334H23.708C23.6939 27.6664 23.6833 27.6029 23.6763 27.5464C23.6657 27.49 23.6622 27.4194 23.6551 27.3383C23.5916 27.4088 23.521 27.4758 23.4399 27.5394C23.3588 27.6029 23.267 27.6558 23.1612 27.7016C23.0554 27.7475 22.9354 27.7828 22.8049 27.8075C22.6708 27.8322 22.5226 27.8463 22.3533 27.8463H22.3498ZM22.5156 27.2218C22.6743 27.2218 22.819 27.2042 22.9495 27.1654C23.0801 27.1301 23.1965 27.0737 23.2917 26.996C23.387 26.9184 23.4646 26.8232 23.5175 26.7103C23.5704 26.5939 23.5987 26.4598 23.5987 26.3046V25.6131C23.4399 25.6695 23.3023 25.7154 23.1788 25.7471C23.0554 25.7824 22.9319 25.8142 22.8119 25.8389C22.6002 25.8918 22.4203 25.9412 22.2757 25.987C22.131 26.0329 22.0181 26.0823 21.9299 26.1387C21.8417 26.1917 21.7818 26.2552 21.7465 26.3257C21.7112 26.3963 21.69 26.481 21.69 26.5797C21.69 26.7879 21.7641 26.9467 21.9017 27.056C22.0393 27.1654 22.2439 27.2183 22.512 27.2183L22.5156 27.2218Z" fill="white"/>
<path d="M26.8443 27.8464C26.5762 27.8464 26.3328 27.8182 26.1176 27.7582C25.9023 27.6983 25.7154 27.6136 25.5601 27.5007C25.4049 27.3878 25.2779 27.2467 25.1862 27.0773C25.0909 26.9115 25.0345 26.7175 25.0098 26.4952H25.8036C25.8247 26.6328 25.8635 26.7492 25.92 26.841C25.9764 26.9362 26.0505 27.0103 26.1422 27.0703C26.234 27.1303 26.3398 27.1726 26.4633 27.1973C26.5868 27.222 26.7208 27.2361 26.8655 27.2361C26.9925 27.2361 27.1089 27.2255 27.2148 27.2044C27.3206 27.1832 27.4123 27.1514 27.4899 27.1056C27.5676 27.0597 27.624 27.0033 27.6699 26.9362C27.7122 26.8692 27.7334 26.7881 27.7334 26.6928V26.6857C27.7334 26.5834 27.7122 26.4988 27.6699 26.4317C27.6275 26.3647 27.5711 26.3082 27.4935 26.2624C27.4194 26.2165 27.3312 26.1777 27.2253 26.1495C27.1195 26.1213 27.0101 26.0895 26.8867 26.0648L26.294 25.9343C26.1281 25.899 25.9694 25.8496 25.8283 25.7826C25.6836 25.7191 25.5601 25.6379 25.4543 25.5391C25.3485 25.4439 25.2673 25.3275 25.2038 25.1969C25.1438 25.0664 25.1121 24.9112 25.1121 24.7418V24.7348C25.1121 24.5584 25.1544 24.3996 25.2391 24.2585C25.3238 24.1174 25.4367 23.9904 25.5813 23.8881C25.7259 23.7857 25.8988 23.7046 26.0964 23.6481C26.294 23.5917 26.5056 23.5635 26.7349 23.5635C26.9643 23.5635 27.1724 23.5846 27.3629 23.6305C27.5534 23.6764 27.7193 23.7469 27.8639 23.8422C28.0086 23.9374 28.125 24.0609 28.2167 24.2126C28.3084 24.3643 28.3684 24.5443 28.3966 24.7595H27.6028C27.5817 24.643 27.5429 24.5478 27.4899 24.4702C27.437 24.3926 27.3735 24.3326 27.2924 24.2902C27.2148 24.2444 27.123 24.2162 27.0242 24.1985C26.9255 24.1809 26.8126 24.1703 26.6961 24.1703C26.5797 24.1703 26.4774 24.1809 26.3786 24.2056C26.2834 24.2303 26.1987 24.2655 26.1281 24.3079C26.0576 24.3502 26.0047 24.4067 25.9623 24.4702C25.92 24.5337 25.9023 24.6078 25.9023 24.6924V24.6995C25.9023 24.8582 25.9588 24.9782 26.0682 25.0593C26.1775 25.1405 26.3328 25.204 26.5303 25.2463L27.123 25.3769C27.3171 25.4192 27.5005 25.4721 27.6699 25.5286C27.8392 25.5885 27.9874 25.6626 28.1144 25.7544C28.2414 25.8461 28.3367 25.959 28.4107 26.093C28.4813 26.2271 28.5166 26.3894 28.5166 26.5834V26.5905C28.5166 26.7916 28.4742 26.968 28.386 27.1267C28.3014 27.282 28.1814 27.4125 28.0332 27.5219C27.8851 27.6312 27.7051 27.7089 27.5005 27.7653C27.2959 27.8217 27.0736 27.85 26.8337 27.85L26.8443 27.8464Z" fill="white"/>
<path d="M32.5418 27.8466C32.2349 27.8466 31.9562 27.7936 31.7092 27.6878C31.4623 27.582 31.2471 27.4338 31.0742 27.2433C30.9013 27.0528 30.7637 26.827 30.6685 26.5624C30.5732 26.2978 30.5273 26.012 30.5273 25.7015V25.6945C30.5273 25.384 30.5767 25.0947 30.672 24.8337C30.7672 24.5726 30.9048 24.3468 31.0848 24.1598C31.2612 23.9728 31.4764 23.8247 31.7269 23.7188C31.9773 23.613 32.2561 23.5601 32.563 23.5601C32.8311 23.5601 33.071 23.5953 33.2898 23.6659C33.5085 23.7365 33.6955 23.8352 33.8578 23.9587C34.02 24.0857 34.1506 24.2339 34.2529 24.4103C34.3552 24.5867 34.4258 24.7807 34.461 24.9959H33.6496C33.5826 24.7455 33.4556 24.5514 33.2615 24.4209C33.0675 24.2868 32.8311 24.2198 32.5489 24.2198C32.3795 24.2198 32.2208 24.2515 32.0761 24.3186C31.9315 24.3856 31.8045 24.4809 31.7022 24.6043C31.5999 24.7313 31.5152 24.8831 31.4552 25.0665C31.3952 25.25 31.367 25.4581 31.367 25.691V25.698C31.367 25.9344 31.3952 26.1425 31.4552 26.3295C31.5152 26.5165 31.5963 26.6682 31.7022 26.7952C31.808 26.9222 31.9315 27.0175 32.0761 27.0845C32.2208 27.1515 32.3795 27.1833 32.5489 27.1833C32.8311 27.1833 33.0675 27.1163 33.2615 26.9787C33.4556 26.8446 33.5826 26.6506 33.6496 26.3966H34.461C34.4222 26.6082 34.3517 26.8058 34.2494 26.9822C34.1471 27.1586 34.013 27.3103 33.8472 27.4373C33.6849 27.5643 33.4908 27.6631 33.2721 27.7337C33.0534 27.8042 32.8099 27.8395 32.5418 27.8395V27.8466Z" fill="white"/>
<path d="M36.9488 27.8464C36.6313 27.8464 36.3455 27.7935 36.0915 27.6842C35.8375 27.5748 35.6223 27.4266 35.4459 27.2361C35.2695 27.0456 35.1319 26.8198 35.0366 26.5552C34.9414 26.2906 34.8955 26.0084 34.8955 25.7014V25.6944C34.8955 25.3874 34.9414 25.1052 35.0366 24.8441C35.1319 24.5831 35.2695 24.3573 35.4459 24.1668C35.6223 23.9762 35.8375 23.8281 36.0915 23.7222C36.3455 23.6164 36.6313 23.5635 36.9488 23.5635C37.2663 23.5635 37.5521 23.6164 37.8061 23.7222C38.0601 23.8281 38.2753 23.9762 38.4517 24.1668C38.6281 24.3573 38.7657 24.5831 38.8574 24.8441C38.9527 25.1052 38.9985 25.3874 38.9985 25.6944V25.7014C38.9985 26.0084 38.9527 26.2941 38.8574 26.5552C38.7622 26.8163 38.6281 27.0456 38.4517 27.2361C38.2753 27.4266 38.0566 27.5748 37.8061 27.6842C37.5521 27.7935 37.2663 27.8464 36.9488 27.8464ZM36.9488 27.1867C37.1499 27.1867 37.3263 27.1514 37.4745 27.0773C37.6262 27.0068 37.7532 26.9045 37.852 26.7704C37.9543 26.6399 38.0284 26.4811 38.0813 26.3012C38.1307 26.1213 38.1589 25.9202 38.1589 25.7014V25.6944C38.1589 25.4756 38.1342 25.2781 38.0813 25.0981C38.0319 24.9182 37.9543 24.763 37.852 24.6325C37.7496 24.5019 37.6226 24.4031 37.4745 24.329C37.3228 24.2585 37.1464 24.2197 36.9488 24.2197C36.7512 24.2197 36.5713 24.255 36.4196 24.329C36.2679 24.4031 36.1409 24.5019 36.0386 24.6325C35.9363 24.763 35.8622 24.9182 35.8093 25.0981C35.7599 25.2781 35.7316 25.4792 35.7316 25.6944V25.7014C35.7316 25.9202 35.7563 26.1177 35.8093 26.3012C35.8586 26.4811 35.9363 26.6399 36.0386 26.7704C36.1409 26.9009 36.2679 27.0033 36.4196 27.0773C36.5713 27.1479 36.7477 27.1867 36.9488 27.1867Z" fill="white"/>
<path d="M39.7812 23.673H40.575V24.1598C40.6421 24.0716 40.7162 23.9905 40.7973 23.9164C40.8785 23.8423 40.9702 23.7788 41.069 23.7294C41.1677 23.68 41.2806 23.6377 41.4006 23.6059C41.5241 23.5777 41.6617 23.5636 41.8098 23.5636C42.1274 23.5636 42.392 23.6271 42.6072 23.7576C42.8224 23.8882 42.9847 24.0716 43.0976 24.3115C43.2845 24.0434 43.4962 23.8529 43.7326 23.7365C43.9654 23.62 44.2336 23.5601 44.5299 23.5601C44.7769 23.5601 44.9956 23.5989 45.1791 23.68C45.3625 23.7612 45.5177 23.874 45.6412 24.0258C45.7647 24.1775 45.86 24.3609 45.9199 24.5761C45.9799 24.7913 46.0117 25.0348 46.0117 25.3064V27.7301H45.2179V25.4722C45.2179 25.07 45.1403 24.7596 44.9815 24.5479C44.8227 24.3362 44.5828 24.2304 44.2547 24.2304C43.9266 24.2304 43.6903 24.3362 43.535 24.5479C43.3798 24.7596 43.3022 25.0665 43.3022 25.4722V27.7301H42.5084V25.4722C42.5084 25.07 42.4308 24.7596 42.272 24.5479C42.1132 24.3362 41.8733 24.2304 41.5452 24.2304C41.2171 24.2304 40.9808 24.3362 40.822 24.5479C40.6632 24.7596 40.5856 25.0665 40.5856 25.4722V27.7301H39.7918V23.6694L39.7812 23.673Z" fill="white"/>
<path d="M49.1026 27.8464C48.958 27.8464 48.8204 27.8323 48.6898 27.7971C48.5593 27.7653 48.4394 27.7194 48.33 27.663C48.2206 27.6065 48.1218 27.5395 48.0336 27.4584C47.9454 27.3772 47.8749 27.2926 47.8114 27.2008V29.0001H47.0176V23.6728H47.8114V24.2056C47.8713 24.1103 47.9454 24.0256 48.0336 23.948C48.1183 23.8704 48.2171 23.7999 48.33 23.7434C48.4394 23.687 48.5593 23.6411 48.6898 23.6093C48.8204 23.5776 48.958 23.5635 49.1026 23.5635C49.3637 23.5635 49.6106 23.6129 49.84 23.7081C50.0693 23.8034 50.2704 23.9445 50.4397 24.128C50.6126 24.3114 50.7467 24.5337 50.8454 24.7983C50.9442 25.0629 50.9971 25.3627 50.9971 25.7014V25.712C50.9971 26.0507 50.9477 26.3506 50.8454 26.6152C50.7431 26.8798 50.6091 27.102 50.4397 27.2855C50.2704 27.4689 50.0693 27.6065 49.84 27.7053C49.6106 27.8006 49.3637 27.85 49.1026 27.85V27.8464ZM48.9721 27.1832C49.1414 27.1832 49.3002 27.1514 49.4448 27.0915C49.5895 27.0315 49.713 26.9398 49.8188 26.8163C49.9246 26.6928 50.0058 26.5411 50.0658 26.3541C50.1257 26.1707 50.154 25.9554 50.154 25.7085V25.6979C50.154 25.4509 50.1257 25.2357 50.0658 25.0523C50.0058 24.8688 49.9246 24.7136 49.8188 24.5901C49.713 24.4666 49.5895 24.3749 49.4448 24.3149C49.3002 24.255 49.1414 24.2232 48.9721 24.2232C48.8027 24.2232 48.644 24.255 48.4993 24.3149C48.3547 24.3749 48.2312 24.4666 48.1254 24.5901C48.0195 24.7136 47.9384 24.8653 47.8784 25.0523C47.8184 25.2357 47.7902 25.4509 47.7902 25.6979V25.7085C47.7902 25.9554 47.8184 26.1707 47.8784 26.3541C47.9384 26.5376 48.0195 26.6928 48.1254 26.8163C48.2312 26.9398 48.3547 27.0315 48.4993 27.0915C48.644 27.1514 48.8027 27.1832 48.9721 27.1832Z" fill="white"/>
<path d="M52.9796 27.8463C52.768 27.8463 52.5669 27.8181 52.3869 27.7616C52.2035 27.7052 52.0447 27.624 51.9142 27.5182C51.7801 27.4123 51.6778 27.2818 51.6002 27.1301C51.5226 26.9784 51.4873 26.8091 51.4873 26.6185V26.6115C51.4873 26.3963 51.5296 26.2128 51.6143 26.0611C51.699 25.9094 51.8225 25.7824 51.9918 25.6766C52.1576 25.5743 52.3693 25.4861 52.6163 25.419C52.8667 25.352 53.156 25.2956 53.4877 25.2532C53.6535 25.2321 53.7875 25.2074 53.8863 25.1827C53.9851 25.158 54.0592 25.1297 54.1121 25.0945C54.1615 25.0592 54.1968 25.0168 54.2109 24.9675C54.225 24.9181 54.2321 24.8546 54.2321 24.7805V24.7734C54.2321 24.5688 54.158 24.4206 54.0133 24.3218C53.8687 24.2231 53.6641 24.1737 53.403 24.1737C53.2654 24.1737 53.1419 24.1878 53.029 24.216C52.9161 24.2442 52.8174 24.2901 52.7362 24.3501C52.6551 24.41 52.588 24.4876 52.5457 24.5794C52.4998 24.6746 52.4751 24.784 52.4681 24.9145H51.6708C51.6708 24.6817 51.7166 24.4806 51.8119 24.3077C51.9071 24.1384 52.0306 23.9973 52.1894 23.8844C52.3481 23.7715 52.5316 23.6903 52.7433 23.6339C52.9549 23.581 53.1737 23.5527 53.4065 23.5527C53.657 23.5527 53.8828 23.5739 54.0874 23.6198C54.2885 23.6656 54.4614 23.7397 54.599 23.8456C54.7401 23.9479 54.8459 24.0855 54.92 24.2583C54.9941 24.4312 55.0294 24.6394 55.0294 24.8934L55.0223 26.3857C55.0223 26.5339 55.0223 26.6679 55.0259 26.7914C55.0259 26.9149 55.0365 27.0313 55.0435 27.1372C55.0541 27.2465 55.0647 27.3488 55.0823 27.4441C55.0964 27.5394 55.1176 27.6381 55.1423 27.7334H54.3379C54.3238 27.6664 54.3132 27.6029 54.3062 27.5464C54.2956 27.49 54.292 27.4194 54.285 27.3383C54.2215 27.4088 54.1509 27.4758 54.0698 27.5394C53.9886 27.6029 53.8969 27.6558 53.7911 27.7016C53.6852 27.7475 53.5653 27.7828 53.4348 27.8075C53.3007 27.8322 53.1525 27.8463 52.9832 27.8463H52.9796ZM53.1455 27.2218C53.3042 27.2218 53.4489 27.2042 53.5794 27.1654C53.7099 27.1301 53.8264 27.0737 53.9216 26.996C54.0169 26.9184 54.0945 26.8232 54.1474 26.7103C54.2003 26.5939 54.2285 26.4598 54.2285 26.3046V25.6131C54.0698 25.6695 53.9322 25.7154 53.8087 25.7471C53.6852 25.7824 53.5618 25.8142 53.4418 25.8389C53.2301 25.8918 53.0502 25.9412 52.9056 25.987C52.7609 26.0329 52.648 26.0823 52.5598 26.1387C52.4716 26.1917 52.4116 26.2552 52.3764 26.3257C52.3411 26.3963 52.3199 26.481 52.3199 26.5797C52.3199 26.7879 52.394 26.9467 52.5316 27.056C52.6692 27.1654 52.8738 27.2183 53.1419 27.2183L53.1455 27.2218Z" fill="white"/>
<path d="M56.0381 23.6728H56.8319V24.1597C56.8989 24.0715 56.973 23.9904 57.0541 23.9163C57.1353 23.8422 57.227 23.7787 57.3258 23.7293C57.4246 23.6799 57.5375 23.6376 57.6574 23.6058C57.7809 23.5776 57.9185 23.5635 58.0667 23.5635C58.3136 23.5635 58.5288 23.6023 58.7123 23.6834C58.8958 23.7646 59.051 23.8775 59.178 24.0292C59.3015 24.1809 59.3967 24.3643 59.4567 24.5795C59.5167 24.7947 59.5484 25.0382 59.5484 25.3098V27.7335H58.7546V25.4756C58.7546 25.0735 58.677 24.763 58.5183 24.5513C58.3595 24.3396 58.1196 24.2338 57.7915 24.2338C57.4634 24.2338 57.227 24.3396 57.0683 24.5513C56.9095 24.763 56.8319 25.0699 56.8319 25.4756V27.7335H56.0381V23.6728Z" fill="white"/>
<path d="M60.6888 28.3298H60.8687C61.0063 28.3298 61.1192 28.3263 61.2039 28.3157C61.2886 28.3051 61.3662 28.2804 61.4262 28.2451C61.4861 28.2098 61.5355 28.1534 61.5779 28.0828C61.6202 28.0123 61.659 27.917 61.7049 27.7935L61.7296 27.7159L60.0361 23.6729H60.8934L62.16 26.7986H62.167L63.4865 23.6729H64.3015L62.4775 27.857C62.4069 28.0229 62.3399 28.164 62.2764 28.2839C62.2129 28.4039 62.1529 28.5062 62.0894 28.5909C62.0259 28.6755 61.9589 28.7461 61.8883 28.799C61.8142 28.8519 61.7331 28.8943 61.6414 28.9225C61.5496 28.9507 61.4438 28.9719 61.3238 28.9825C61.2039 28.993 61.0663 29.0001 60.9075 29.0001H60.6818V28.3263L60.6888 28.3298Z" fill="white"/>
<path d="M42.6008 1.56299C38.0144 1.56299 34.2959 5.28148 34.2959 9.86785C34.2959 14.4542 38.0144 18.1727 42.6008 18.1727C47.1871 18.1727 50.9056 14.4542 50.9056 9.86785C50.9056 5.28148 47.1871 1.56299 42.6008 1.56299Z" fill="#CBDB2D"/>
<path d="M38.6459 8.06843C38.0462 8.06843 37.5522 7.57804 37.5522 6.97476C37.5522 6.37147 38.0462 5.88108 38.6459 5.88108H39.8384C40.4417 5.88108 40.932 6.37147 40.932 6.97476C40.932 7.57804 40.4417 8.06843 39.8384 8.06843H38.6459ZM41.1472 5.38364H44.3754C44.9751 5.38364 45.469 4.89325 45.469 4.28996C45.469 3.68668 44.9786 3.19629 44.3754 3.19629H41.1472C40.5475 3.19629 40.0536 3.69021 40.0536 4.28996C40.0536 4.88972 40.5475 5.38364 41.1472 5.38364ZM43.9202 13.9355H41.4754C40.8721 13.9355 40.3817 14.4259 40.3817 15.0291C40.3817 15.6324 40.8721 16.1228 41.4754 16.1228H43.9202C44.52 16.1228 45.0139 15.6289 45.0139 15.0291C45.0139 14.4294 44.52 13.9355 43.9202 13.9355ZM47.2577 11.2507H46.217C46.0794 11.2507 45.9665 11.1378 45.9665 11.0002C45.9665 10.8626 46.0794 10.7497 46.217 10.7497H47.2577C47.8575 10.7497 48.3514 10.2593 48.3514 9.65602C48.3514 9.05274 47.8575 8.56235 47.2577 8.56235H45.5466C45.4091 8.56235 45.2962 8.44945 45.2962 8.31186C45.2962 8.17427 45.4091 8.06137 45.5466 8.06137H46.344C46.9437 8.06137 47.4376 7.56746 47.4376 6.9677C47.4376 6.36794 46.9473 5.87403 46.344 5.87403H42.0716C41.4718 5.87403 40.9779 6.36794 40.9779 6.9677C40.9779 7.56746 41.4718 8.06137 42.0716 8.06137H43.7156C43.8532 8.06137 43.9661 8.17427 43.9661 8.31186C43.9661 8.44945 43.8532 8.56235 43.7156 8.56235H43.01H44.0226C44.0226 8.56235 44.019 8.56235 44.0155 8.56235H37.3935C36.7937 8.56235 36.2998 9.05274 36.2998 9.65602C36.2998 10.2593 36.7902 10.7497 37.3935 10.7497H44.0155C44.0402 10.7497 44.0649 10.7426 44.0896 10.7426H44.9822C45.1198 10.7426 45.2327 10.8591 45.2327 11.0002C45.2327 11.1413 45.1198 11.2577 44.9822 11.2577H39.9865C39.5985 11.3036 39.2704 11.5541 39.1151 11.8998C38.9458 11.5259 38.5754 11.2613 38.1414 11.2542C37.5522 11.2648 37.0689 11.7516 37.0689 12.3443C37.0689 12.937 37.5487 13.4239 38.1414 13.4345C38.5754 13.4239 38.9458 13.1628 39.1151 12.7889C39.288 13.1699 39.669 13.4345 40.11 13.4345H47.2542C47.8539 13.4345 48.3479 12.9406 48.3479 12.3408C48.3479 11.7411 47.8539 11.2471 47.2542 11.2471" fill="white"/>
<path d="M0.00390625 1.99707H5.99089C9.31778 1.99707 12.1684 3.23186 12.1684 7.12675C12.1684 11.0216 9.22252 12.5422 5.99089 12.5422H4.08931V17.4355H0.00390625V1.99707ZM5.80038 9.3141C7.41619 9.3141 8.17471 8.5062 8.17471 7.12675C8.17471 5.74731 7.32094 5.22517 5.80038 5.22517H4.08931V9.31057H5.80038V9.3141Z" fill="white"/>
<path d="M14.1152 2.0427C14.1152 0.853771 15.0643 0 16.3978 0C17.7314 0 18.6769 0.853771 18.6769 2.0427C18.6769 3.23163 17.7244 4.0854 16.3978 4.0854C15.0713 4.0854 14.1152 3.23163 14.1152 2.0427ZM14.3516 5.5601H18.437V17.4388H14.3516V5.5601Z" fill="white"/>
<path d="M20.0986 5.56006H24.184L25.4682 10.7391C25.754 11.9245 26.0398 13.1629 26.322 14.447H26.4172C26.703 13.1629 26.9888 11.9281 27.271 10.7391L28.5552 5.56006H32.4501L28.6963 17.4388H23.9935L20.0986 5.56006Z" fill="white"/>
<path d="M54.8991 8.34744H53.3115V5.26751L55.139 5.12286L55.6188 1.99707H59.0339V5.12286H61.7752V8.34744H59.0339V12.4611C59.0339 13.7841 59.7078 14.218 60.4769 14.218C60.8614 14.218 61.246 14.1227 61.5352 14.0275L62.1597 17.0086C61.5352 17.2027 60.6427 17.4426 59.3197 17.4426C56.1939 17.4426 54.8921 15.4704 54.8921 12.5351V8.35096L54.8991 8.34744Z" fill="white"/>
<path d="M72.6162 17.439L69.9561 12.26H68.3862V17.439H64.3008V1.99707H70.1466C73.4735 1.99707 76.3241 3.13661 76.3241 6.98563C76.3241 9.19415 75.3257 10.6442 73.8299 11.4521L77.1779 17.439H72.6162ZM68.3862 9.02834H69.8609C71.4767 9.02834 72.3305 8.31568 72.3305 6.98563C72.3305 5.65559 71.4767 5.2287 69.8609 5.2287H68.3862V9.02834Z" fill="white"/>
<path d="M83.9699 4.98877C87.011 4.98877 89.8616 7.26784 89.8616 11.2121C89.8616 15.1564 87.011 17.4355 83.9699 17.4355C80.9287 17.4355 78.0781 15.1564 78.0781 11.2121C78.0781 7.26784 80.9287 4.98877 83.9699 4.98877ZM83.9699 14.158C85.2046 14.158 85.6809 13.0185 85.6809 11.2121C85.6809 9.4058 85.2082 8.26626 83.9699 8.26626C82.7315 8.26626 82.2588 9.4058 82.2588 11.2121C82.2588 13.0185 82.7351 14.158 83.9699 14.158Z" fill="white"/>
<path d="M97.2736 4.98877C100.315 4.98877 103.165 7.26784 103.165 11.2121C103.165 15.1564 100.315 17.4355 97.2736 17.4355C94.2324 17.4355 91.3818 15.1564 91.3818 11.2121C91.3818 7.26784 94.2324 4.98877 97.2736 4.98877ZM97.2736 14.158C98.5084 14.158 98.9846 13.0185 98.9846 11.2121C98.9846 9.4058 98.5084 8.26626 97.2736 8.26626C96.0388 8.26626 95.5625 9.4058 95.5625 11.2121C95.5625 13.0185 96.0352 14.158 97.2736 14.158Z" fill="white"/>
<path d="M105.734 8.34744H104.146V5.26751L105.974 5.12286L106.454 1.99707H109.869V5.12286H112.61V8.34744H109.869V12.4611C109.869 13.7841 110.543 14.218 111.312 14.218C111.696 14.218 112.081 14.1227 112.37 14.0275L112.995 17.0086C112.37 17.2027 111.478 17.4426 110.155 17.4426C107.029 17.4426 105.731 15.4704 105.731 12.5351V8.35096L105.734 8.34744Z" fill="white"/>
<path d="M115.658 13.2584C116.751 14.0663 117.725 14.4473 118.558 14.4473C119.39 14.4473 119.747 14.2109 119.747 13.7346C119.747 13.1172 118.653 12.8315 117.468 12.3552C116.088 11.8084 114.472 10.7852 114.472 8.8378C114.472 6.50933 116.374 4.98877 119.179 4.98877C121.126 4.98877 122.502 5.77198 123.55 6.55872L121.743 8.98244C120.89 8.36505 120.057 7.98402 119.32 7.98402C118.632 7.98402 118.275 8.17454 118.275 8.65081C118.275 9.26821 119.32 9.50458 120.509 9.935C121.934 10.4571 123.55 11.3603 123.55 13.4983C123.55 15.6362 121.789 17.4425 118.466 17.4425C116.945 17.4425 115.093 16.7793 113.858 15.7809L115.665 13.2619L115.658 13.2584Z" fill="white"/>
</g>
<defs>
<clipPath id="clip0_13748_155121">
<rect width="123.546" height="29" fill="white"/>
</clipPath>
</defs>
</svg>
