<svg width="639" height="432" viewBox="0 0 639 432" fill="none" xmlns="http://www.w3.org/2000/svg">
<path d="M34.1269 414.492C37.8431 419.5 42.4499 423.782 47.7168 427.122C48.8369 427.832 49.9868 428.502 51.1567 429.122H78.6865C78.3569 428.462 78.0366 427.792 77.7265 427.122C69.1906 409.109 66.514 388.875 70.0727 369.263C73.6315 349.65 83.2467 331.647 97.5668 317.782C80.9267 322.922 65.5468 332.942 55.4867 347.152C50.5986 354.072 47.1223 361.887 45.2567 370.152C43.5942 353.623 46.2365 336.946 52.9267 321.742C39.4169 332.732 28.8964 347.782 24.8867 364.722C20.8769 381.672 23.7866 400.482 34.1269 414.492Z" fill="#F0F0F0"/>
<path d="M255.346 128.217C254.725 129.404 253.852 130.439 252.787 131.252C251.723 132.064 250.493 132.633 249.185 132.918C247.877 133.204 246.522 133.199 245.216 132.905C243.91 132.61 242.684 132.032 241.626 131.213L214.367 148.997L214.45 132.084L240.323 117.789C241.817 116.102 243.879 115.021 246.117 114.752C248.355 114.483 250.614 115.045 252.466 116.33C254.318 117.616 255.634 119.536 256.165 121.727C256.696 123.917 256.404 126.227 255.346 128.217Z" fill="#FFB6B6"/>
<path d="M118.559 417.364H130.253L135.817 372.257L118.557 372.258L118.559 417.364Z" fill="#FFB6B6"/>
<path d="M115.577 428.7L153.284 428.699V428.222C153.284 424.329 151.738 420.596 148.985 417.844C146.233 415.092 142.5 413.545 138.608 413.545L115.576 413.546L115.577 428.7Z" fill="#2F2E41"/>
<path d="M176.415 417.364H188.109L193.672 372.257L176.413 372.258L176.415 417.364Z" fill="#FFB6B6"/>
<path d="M173.433 428.7L211.14 428.699V428.222C211.14 424.329 209.593 420.596 206.841 417.844C204.089 415.092 200.356 413.545 196.463 413.545L173.432 413.546L173.433 428.7Z" fill="#2F2E41"/>
<path d="M189.913 187.19L201.566 303.468L195.739 403.836H173.212L168.659 309.425L150.942 257.799L140.63 337.356L140.63 402.132L115.001 403.318L106.496 244.718C106.496 244.718 103.607 200.358 109.372 194.922C115.137 189.487 189.913 187.19 189.913 187.19Z" fill="#2F2E41"/>
<path d="M90.5573 82.268L114.109 73.402L118.254 64.9974L147.862 65.4273L154.57 72.1667L177.626 79.7192L192.286 192.03C192.286 192.03 147.162 224.279 107.108 201.997L90.5573 82.268Z" fill="#7EA8C3"/>
<path d="M234.703 139.073L195.95 161.856L163.659 118.663V91.5708C163.657 89.0668 164.397 86.6183 165.786 84.5351C167.067 82.6101 168.85 81.0714 170.941 80.0851C173.033 79.0988 175.354 78.7024 177.654 78.9385C179.954 79.1746 182.147 80.0344 183.994 81.425C185.842 82.8156 187.274 84.6843 188.138 86.8294L204.908 128.496L228.693 121.468L234.703 139.073Z" fill="#7EA8C3"/>
<path d="M122.091 199.833C121.855 198.515 121.333 197.265 120.562 196.171C119.79 195.076 118.788 194.164 117.627 193.499C116.465 192.833 115.171 192.431 113.837 192.32C112.503 192.208 111.16 192.391 109.904 192.854L89.2479 167.703L84.2459 183.859L104.628 205.266C105.547 207.325 107.189 208.975 109.243 209.904C111.297 210.833 113.62 210.976 115.772 210.306C117.925 209.637 119.757 208.201 120.921 206.27C122.086 204.34 122.502 202.05 122.091 199.833Z" fill="#FFB6B6"/>
<path d="M91.281 195.873L104.334 182.819L82.7771 144.193L114.042 109.15L112.237 95.0119C111.822 91.7573 110.518 88.6798 108.469 86.117C106.688 83.8886 104.398 82.1192 101.793 80.9568C99.187 79.7944 96.3409 79.2728 93.4925 79.4356C90.644 79.5984 87.8759 80.4409 85.4197 81.8926C82.9635 83.3443 80.8907 85.3631 79.3745 87.78L54.9292 142.135L55.0514 142.316L91.281 195.873Z" fill="#7EA8C3"/>
<path d="M111.378 35.8186C112.281 42.4111 115.765 48.3753 121.063 52.4006C126.362 56.4259 133.042 58.1828 139.635 57.2855C146.229 56.3881 152.196 52.9098 156.226 47.6149C160.256 42.32 162.02 35.6417 161.128 29.0475L161.08 28.6911C160.04 22.1856 156.484 16.3496 151.18 12.4422C145.875 8.53468 139.248 6.86889 132.726 7.80409C126.205 8.7393 120.312 12.2005 116.32 17.4412C112.328 22.6818 110.555 29.2819 111.385 35.8175L111.378 35.8186Z" fill="#FFB6B6"/>
<path d="M117.767 48.7493C116.478 46.1305 115.154 43.3189 115.516 40.4225C115.878 37.5261 118.719 34.7576 121.508 35.6184C123.176 36.1331 124.436 37.7801 126.18 37.8644C128.579 37.9804 129.954 35.2349 130.701 32.9523L133.742 23.6557C136.662 25.9316 140.048 27.5347 143.66 28.3508C147.271 29.1668 151.018 29.1756 154.633 28.3765C157.456 27.731 160.309 26.4724 161.965 24.0963C163.621 21.7203 163.611 18.0346 161.339 16.2379C160.226 15.3569 158.743 15.0222 157.679 14.0821C157.018 13.499 156.563 12.7187 156.381 11.8568C156.198 10.9949 156.298 10.0972 156.666 9.29652C157.033 8.49581 157.648 7.83465 158.421 7.4109C159.193 6.98714 160.081 6.8233 160.954 6.94361L153.297 5.98661L155.579 1.86048C154.711 2.45068 153.731 2.8533 152.699 3.04258C151.667 3.23186 150.607 3.20364 149.587 2.95969C147.527 2.58876 145.587 1.74055 143.571 1.1749C138.687 -0.0725055 133.528 0.308704 128.88 2.26066C124.231 4.21261 120.347 7.6286 117.817 11.9896C115.933 11.3604 113.902 11.3186 111.993 11.8697C110.085 12.4208 108.389 13.5387 107.13 15.0754C105.08 17.677 104.523 21.1488 104.443 24.4598C104.294 30.9884 105.718 37.4571 108.594 43.32C109.419 45.1822 110.603 46.8631 112.08 48.2657C112.824 48.9612 113.711 49.4855 114.678 49.802C115.646 50.1184 116.671 50.2193 117.682 50.0976" fill="#20303A"/>
<path d="M1.52628 431.091L636.974 431.091C637.32 431.098 637.659 430.991 637.937 430.786C638.215 430.581 638.418 430.29 638.514 429.957C638.573 429.731 638.58 429.494 638.534 429.265C638.488 429.036 638.389 428.82 638.247 428.635C638.104 428.45 637.921 428.299 637.711 428.196C637.501 428.093 637.27 428.039 637.036 428.039L1.65134 428.039C1.28673 428.026 0.928562 428.137 0.635101 428.354C0.341641 428.57 0.130195 428.88 0.0351868 429.232C-0.0143001 429.455 -0.0130603 429.687 0.0388489 429.91C0.0907581 430.132 0.192012 430.341 0.335114 430.519C0.478215 430.698 0.659529 430.842 0.865692 430.941C1.07185 431.039 1.29758 431.091 1.52628 431.091Z" fill="#CCCCCC"/>
</svg>
